<?xml version="1.0" standalone="no"?>
<svg version="1.0" xmlns="http://www.w3.org/2000/svg"
 width="835.000000pt" height="910.000000pt"
 viewBox="0 0 835.000000 910.000000"
 preserveAspectRatio="xMidYMid meet">
<g transform="translate(0.000000,910.000000) scale(0.100000,-0.100000)">
<path d="M3919 8276 c-3 -3 -91 -13 -195 -21 -318 -27 -558 -70 -824 -150 -30
-9 -75 -23 -100 -30 -58 -18 -176 -61 -217 -80 -17 -8 -33 -15 -36 -15 -3 0
-36 -14 -74 -31 -333 -150 -619 -344 -858 -584 -164 -165 -294 -332 -409 -528
-29 -49 -112 -216 -136 -272 -12 -27 -25 -59 -30 -70 -20 -46 -78 -230 -110
-350 -31 -114 -64 -332 -87 -570 -23 -226 -23 -630 0 -870 20 -226 36 -327 93
-605 14 -72 67 -278 82 -325 6 -16 25 -75 42 -130 17 -55 38 -114 46 -132 8
-17 14 -36 14 -42 0 -6 7 -27 16 -48 9 -21 20 -47 25 -58 48 -119 64 -155 90
-213 296 -649 742 -1240 1254 -1663 296 -244 607 -441 823 -521 31 -11 68 -25
82 -31 54 -22 224 -70 320 -91 144 -30 256 -40 455 -40 203 0 319 11 455 40
137 30 268 67 330 92 14 6 50 20 80 32 81 32 216 99 290 143 84 51 288 188
365 246 114 86 296 243 417 359 196 189 436 478 597 719 118 177 231 372 327
563 47 94 114 239 114 246 0 7 38 94 50 116 6 10 10 23 10 29 0 6 6 25 14 42
19 44 65 173 81 227 7 25 21 70 30 100 94 312 157 649 187 995 18 204 15 626
-5 825 -32 318 -56 460 -120 690 -20 70 -35 117 -53 157 -8 17 -14 38 -14 46
0 9 -4 18 -9 21 -5 3 -12 18 -16 33 -11 44 -146 311 -200 393 -101 157 -225
310 -360 445 -206 206 -449 383 -705 511 -251 125 -427 192 -690 260 -358 94
-681 133 -1150 141 -157 2 -288 2 -291 -1z m711 -746 c185 -25 228 -31 305
-45 183 -33 240 -48 445 -116 111 -36 122 -41 298 -125 220 -105 393 -227 560
-394 214 -213 354 -440 453 -732 29 -86 38 -120 59 -228 6 -30 15 -75 20 -100
9 -43 21 -143 40 -350 12 -120 12 -454 0 -585 -14 -164 -29 -297 -39 -350 -6
-27 -15 -77 -21 -110 -27 -139 -39 -195 -63 -290 -15 -54 -31 -111 -36 -125
-5 -14 -19 -59 -31 -100 -13 -41 -26 -79 -31 -85 -5 -5 -9 -15 -9 -22 0 -51
-212 -514 -315 -688 -240 -406 -527 -751 -855 -1026 -85 -72 -276 -213 -369
-273 -89 -58 -271 -147 -361 -176 -105 -33 -120 -37 -215 -57 -69 -14 -135
-18 -280 -18 -145 0 -211 4 -280 18 -277 57 -490 160 -790 386 -261 196 -537
472 -737 736 -109 144 -261 382 -335 523 -102 194 -128 251 -237 517 -7 17
-27 77 -45 135 -19 58 -38 114 -42 125 -5 11 -13 38 -18 60 -6 22 -21 85 -34
140 -62 252 -80 367 -107 665 -12 134 -12 476 0 600 23 245 33 317 66 475 44
208 123 409 232 590 67 112 170 240 279 347 170 168 303 264 517 372 143 73
184 91 336 144 150 53 337 101 474 122 38 6 72 13 75 15 6 3 157 20 316 35
114 11 674 4 775 -10z" fill="#000000" stroke="none"/>
<path d="M2579 5261 c-116 -37 -200 -120 -240 -239 -16 -48 -20 -79 -17 -125
3 -34 15 -89 28 -122 21 -56 48 -86 439 -478 229 -231 432 -429 451 -441 52
-33 131 -56 195 -56 63 0 142 23 195 55 57 36 116 107 140 171 31 81 37 168
15 236 -10 29 -27 69 -38 88 -25 43 -796 820 -855 861 -56 40 -145 69 -207 68
-27 -1 -75 -9 -106 -18z" fill="#000000" stroke="none"/>
<path d="M5573 5260 c-29 -10 -71 -32 -95 -48 -59 -41 -830 -818 -855 -862
-11 -19 -28 -59 -38 -88 -34 -106 0 -255 79 -340 50 -54 94 -83 163 -105 96
-31 217 -16 303 39 19 12 222 210 451 441 391 392 418 422 439 478 13 33 25
88 28 122 8 115 -56 246 -154 313 -58 40 -153 70 -219 69 -27 -1 -73 -9 -102
-19z" fill="#000000" stroke="none"/>
<path d="M3705 3011 c-27 -9 -64 -24 -80 -33 -45 -24 -121 -109 -147 -165 -19
-41 -23 -64 -23 -153 0 -98 2 -109 30 -159 58 -105 135 -161 285 -211 165 -54
352 -75 533 -59 109 9 197 27 307 63 80 26 124 47 177 87 36 27 64 60 90 106
37 67 38 70 38 173 0 86 -4 113 -22 152 -25 55 -93 131 -143 163 -44 27 -143
55 -196 55 -22 0 -75 -12 -119 -26 -132 -43 -183 -54 -253 -54 -63 1 -97 8
-267 59 -82 25 -141 25 -210 2z" fill="#000000" stroke="none"/>
</g>
</svg>
