<?xml version="1.0" standalone="no"?>
<svg version="1.0" xmlns="http://www.w3.org/2000/svg"
 width="910.000000pt" height="910.000000pt"
 viewBox="0 0 910.000000 910.000000"
 preserveAspectRatio="xMidYMid meet">
<g transform="translate(0.000000,910.000000) scale(0.100000,-0.100000)">
<path d="M5778 8274 c-4 -3 -85 -12 -180 -20 -215 -17 -381 -39 -558 -75 -139
-29 -337 -75 -380 -89 -14 -5 -59 -18 -100 -30 -114 -34 -337 -110 -368 -126
-15 -8 -33 -14 -40 -14 -7 0 -20 -4 -30 -10 -9 -5 -48 -22 -87 -38 -281 -116
-604 -288 -864 -461 -536 -355 -999 -803 -1382 -1336 -78 -109 -123 -178 -236
-365 -80 -132 -231 -421 -277 -531 -10 -24 -32 -75 -48 -114 -16 -38 -33 -79
-38 -90 -35 -79 -106 -288 -149 -435 -13 -41 -26 -86 -31 -100 -22 -67 -75
-306 -110 -495 -45 -239 -73 -571 -74 -855 -1 -231 7 -330 40 -495 47 -235
148 -497 273 -705 176 -294 480 -598 771 -771 268 -159 559 -259 880 -301 132
-18 517 -15 730 5 270 25 531 66 720 113 36 9 94 23 130 31 36 8 76 19 90 23
14 5 59 18 100 31 147 43 354 114 435 149 11 5 76 32 144 61 240 102 542 264
801 432 92 59 279 195 386 280 217 172 472 415 654 623 58 66 107 121 110 124
13 12 182 233 240 315 87 121 145 210 235 362 41 70 79 135 84 143 17 27 169
334 195 393 14 31 37 85 51 120 14 34 30 71 34 82 5 11 16 40 26 65 9 25 21
55 26 68 15 39 76 225 94 287 9 33 23 78 30 100 7 22 20 69 28 105 8 36 22 94
31 130 82 349 129 751 130 1125 1 227 -8 343 -40 495 -52 253 -143 491 -273
710 -81 137 -213 303 -340 431 -127 126 -292 257 -431 340 -124 75 -295 153
-440 202 -244 82 -419 108 -750 114 -130 2 -239 1 -242 -3z m-58 -754 c11 -11
20 -29 20 -39 0 -39 75 -299 111 -386 6 -17 32 -72 56 -123 23 -51 43 -95 43
-97 0 -2 28 -50 61 -106 99 -162 203 -295 345 -436 195 -194 353 -307 589
-422 77 -37 154 -74 170 -80 80 -34 270 -89 402 -117 35 -7 43 -33 33 -110 -5
-38 -14 -107 -20 -154 -12 -98 -33 -225 -54 -325 -39 -189 -32 -159 -77 -315
-51 -179 -140 -431 -195 -548 -13 -29 -24 -55 -24 -57 0 -10 -97 -206 -143
-290 -28 -49 -64 -115 -80 -145 -93 -169 -329 -500 -487 -680 -201 -231 -453
-467 -692 -646 -150 -113 -353 -249 -463 -309 -38 -21 -86 -48 -105 -60 -48
-29 -324 -163 -405 -196 -11 -4 -45 -18 -75 -29 -30 -12 -66 -26 -80 -32 -42
-17 -280 -94 -360 -117 -132 -38 -144 -41 -195 -52 -27 -6 -81 -17 -120 -25
-100 -21 -227 -42 -325 -54 -47 -6 -116 -15 -154 -20 -77 -10 -103 -2 -110 33
-29 132 -84 323 -117 402 -38 93 -127 271 -171 344 -86 142 -193 276 -331 415
-141 142 -273 246 -436 345 -56 33 -104 61 -106 61 -3 0 -46 20 -97 43 -51 24
-106 49 -123 56 -85 36 -347 111 -386 111 -29 0 -62 38 -55 63 3 12 10 72 16
132 10 96 19 156 61 390 39 220 172 647 268 860 10 22 31 69 47 105 31 71 129
264 162 320 11 19 33 57 47 84 47 87 194 305 296 441 178 238 420 497 654 700
206 179 506 389 745 522 19 11 89 47 155 81 105 53 155 77 290 137 109 49 409
153 545 190 36 9 76 21 90 26 14 4 50 13 80 19 30 6 87 18 125 26 146 30 294
53 405 64 63 7 117 14 119 16 10 10 32 3 51 -16z m846 -56 c239 -96 400 -200
559 -359 162 -162 269 -330 364 -572 23 -57 -4 -67 -85 -32 -141 59 -290 143
-384 216 -147 114 -284 265 -375 414 -15 25 -110 218 -129 262 -17 40 -20 69
-9 80 9 10 16 9 59 -9z m-4859 -4880 c50 -22 232 -111 258 -127 107 -65 191
-132 288 -230 131 -132 198 -226 281 -392 83 -166 99 -216 76 -230 -6 -4 -32
2 -58 11 -49 19 -196 87 -222 104 -8 5 -35 21 -60 36 -84 50 -188 133 -273
218 -152 152 -243 287 -334 496 -37 85 -45 109 -38 119 9 16 38 14 82 -5z" fill="#000000" stroke="none"/>
<path d="M5574 6010 c-28 -10 -68 -29 -90 -43 -21 -14 -151 -138 -289 -276
-137 -138 -254 -251 -259 -251 -5 0 -46 36 -91 79 -45 43 -104 89 -131 102
-41 19 -65 23 -154 23 -89 0 -113 -4 -155 -23 -63 -30 -146 -113 -176 -176
-19 -42 -23 -66 -23 -155 0 -89 4 -113 23 -154 13 -27 59 -86 102 -131 43 -45
79 -86 79 -91 0 -12 -212 -224 -224 -224 -5 0 -46 36 -91 79 -45 43 -104 89
-131 102 -41 19 -65 23 -154 23 -89 0 -113 -4 -155 -23 -63 -30 -146 -113
-176 -176 -19 -42 -23 -66 -23 -155 0 -89 4 -113 23 -154 13 -27 59 -86 102
-131 43 -45 79 -86 79 -91 0 -5 -113 -122 -251 -259 -138 -138 -262 -268 -276
-289 -36 -56 -63 -141 -63 -201 0 -54 26 -143 56 -192 46 -73 110 -122 202
-154 30 -10 78 -19 107 -19 60 0 145 27 201 63 21 14 151 138 289 276 137 138
254 251 259 251 5 0 46 -36 91 -79 45 -43 104 -89 131 -102 41 -19 65 -23 154
-23 89 0 113 4 155 23 63 30 146 113 176 176 19 42 23 66 23 155 0 89 -4 113
-23 154 -13 27 -59 86 -102 131 -43 45 -79 86 -79 91 0 12 212 224 224 224 5
0 46 -36 91 -79 45 -43 104 -89 131 -102 41 -19 65 -23 154 -23 89 0 113 4
155 23 63 30 146 113 176 176 19 42 23 66 23 155 0 89 -4 113 -23 154 -13 27
-59 86 -102 131 -43 45 -79 86 -79 91 0 5 113 122 251 259 138 138 262 268
276 289 36 56 63 141 63 201 0 90 -52 208 -116 266 -43 38 -79 59 -142 80 -68
23 -151 23 -218 -1z" fill="#000000" stroke="none"/>
</g>
</svg>
