<?xml version="1.0" standalone="no"?>
<svg version="1.0" xmlns="http://www.w3.org/2000/svg"
 width="799.000000pt" height="949.000000pt"
 viewBox="0 0 799.000000 949.000000"
 preserveAspectRatio="xMidYMid meet">
<g transform="translate(0.000000,949.000000) scale(0.100000,-0.100000)">
<path d="M4810 8661 c-8 -5 -42 -12 -75 -16 -120 -14 -294 -86 -430 -177 -76
-51 -192 -164 -255 -248 -139 -187 -220 -427 -220 -651 0 -130 49 -237 139
-303 75 -55 142 -76 246 -76 88 0 229 24 328 55 45 13 205 89 252 118 89 55
211 168 279 257 152 200 227 414 230 654 1 117 0 123 -32 188 -38 78 -113 150
-182 174 -25 9 -53 20 -62 25 -22 11 -198 11 -218 0z" fill="#000000" stroke="none"/>
<path d="M2650 6779 c-165 -9 -232 -21 -420 -76 -30 -9 -64 -19 -75 -24 -11
-4 -49 -20 -85 -35 -192 -77 -385 -210 -542 -370 -116 -119 -186 -208 -264
-334 -189 -304 -320 -670 -390 -1090 -50 -300 -63 -713 -32 -1010 32 -304 93
-608 182 -905 8 -27 20 -68 26 -90 6 -22 15 -49 20 -60 5 -11 21 -56 35 -100
33 -96 72 -202 85 -230 5 -11 19 -45 30 -75 12 -30 32 -77 45 -105 12 -27 39
-86 59 -130 20 -44 42 -89 48 -100 6 -11 34 -63 62 -115 27 -52 64 -117 81
-145 16 -27 48 -79 70 -114 76 -123 243 -337 341 -437 108 -110 176 -168 271
-233 77 -51 223 -126 289 -147 152 -48 310 -60 504 -35 116 14 178 28 480 104
243 62 348 77 526 77 171 0 255 -13 419 -64 312 -98 505 -131 755 -130 162 1
240 12 360 53 229 79 462 234 729 486 68 64 268 292 342 390 69 90 179 257
247 375 52 89 155 298 182 365 4 11 13 34 20 50 21 49 71 206 87 270 39 158
66 441 45 468 -5 7 -13 28 -17 47 -11 48 -45 100 -101 149 -46 40 -122 81
-151 81 -27 0 -226 72 -282 102 -208 112 -351 281 -409 483 -25 90 -42 199
-42 278 0 227 116 450 319 611 131 104 185 135 487 277 76 36 144 107 168 174
10 28 22 58 27 67 12 23 12 155 0 162 -5 3 -12 21 -15 39 -8 41 -91 162 -191
278 -108 125 -305 293 -453 385 -146 91 -358 198 -476 240 -163 58 -298 97
-451 131 -60 13 -126 17 -265 17 -186 0 -279 -11 -420 -50 -30 -8 -80 -22
-110 -30 -50 -14 -186 -63 -235 -84 -11 -5 -65 -28 -120 -51 -105 -44 -170
-72 -273 -120 -34 -16 -66 -29 -71 -29 -5 0 -22 -7 -37 -15 -60 -31 -89 -23
-362 107 -159 75 -253 118 -259 118 -3 0 -19 6 -36 14 -50 22 -186 72 -247 89
-82 24 -214 45 -310 50 -47 2 -137 0 -200 -4z m2795 -729 c39 -6 84 -15 100
-20 139 -42 235 -73 265 -86 122 -53 332 -166 389 -211 9 -7 -22 -51 -43 -61
-34 -16 -154 -116 -239 -198 -220 -214 -365 -466 -431 -749 -40 -172 -38 -489
4 -680 39 -176 62 -240 136 -390 67 -134 158 -258 273 -372 74 -74 230 -203
245 -203 3 0 24 -13 48 -28 24 -16 80 -46 125 -68 45 -21 84 -46 88 -56 6 -16
-20 -105 -52 -178 -23 -54 -111 -230 -140 -280 -148 -258 -404 -562 -615 -732
-83 -67 -237 -168 -256 -168 -4 0 -20 -8 -37 -18 -25 -14 -53 -17 -165 -15
-133 1 -253 19 -375 56 -27 8 -75 23 -105 32 -170 52 -267 73 -410 90 -157 19
-313 18 -505 0 -176 -18 -290 -39 -480 -91 -55 -15 -101 -26 -210 -53 -77 -18
-151 -31 -222 -37 -66 -6 -76 -4 -137 24 -82 38 -161 99 -247 188 -98 103
-179 209 -266 351 -95 154 -148 252 -229 428 -76 165 -172 424 -233 630 -26
86 -50 178 -65 245 -10 41 -22 93 -27 115 -11 44 -22 109 -39 230 -6 44 -15
109 -21 144 -17 105 -22 416 -10 546 16 171 30 283 41 335 5 25 16 79 25 120
42 195 125 430 197 553 15 26 28 50 28 53 0 11 77 121 132 190 116 144 271
254 434 310 117 39 155 46 311 51 136 4 171 3 220 -12 100 -30 233 -84 381
-156 79 -38 146 -69 148 -69 2 0 36 -15 76 -34 188 -87 303 -116 456 -116 64
0 129 4 146 10 17 5 56 16 86 26 30 9 98 33 150 54 88 35 134 55 265 115 28
12 75 33 105 45 30 12 69 28 85 35 17 7 53 20 80 30 28 9 59 21 70 26 36 15
149 41 210 49 89 11 162 11 240 0z" fill="#000000" stroke="none"/>
</g>
</svg>
