<?xml version="1.0" standalone="no"?>
<svg version="1.0" xmlns="http://www.w3.org/2000/svg"
 width="910.000000pt" height="610.000000pt"
 viewBox="0 0 910.000000 610.000000"
 preserveAspectRatio="xMidYMid meet">
<g transform="translate(0.000000,610.000000) scale(0.100000,-0.100000)">
<path d="M2200 5261 c-25 -9 -61 -25 -80 -35 -46 -24 -1191 -1167 -1234 -1231
-64 -98 -82 -207 -49 -308 32 -102 104 -183 203 -231 37 -17 63 -21 146 -21
165 0 145 -15 664 502 245 244 452 443 460 443 8 0 215 -199 460 -443 519
-517 499 -502 665 -502 166 0 146 -15 665 502 245 244 452 443 460 443 8 0
215 -199 460 -443 519 -517 499 -502 665 -502 166 0 146 -15 665 502 245 244
452 443 460 443 8 0 215 -199 460 -443 519 -517 499 -502 665 -502 92 0 107 3
157 28 31 16 76 48 100 71 46 46 88 119 88 154 0 11 5 24 10 27 16 10 12 121
-7 178 -9 29 -31 75 -49 102 -43 65 -1188 1207 -1234 1231 -136 70 -245 70
-380 0 -19 -10 -235 -218 -480 -462 -245 -244 -450 -444 -455 -444 -5 0 -210
200 -455 444 -245 244 -461 452 -480 462 -66 34 -135 53 -190 53 -55 0 -124
-19 -190 -53 -19 -10 -235 -218 -480 -462 -245 -244 -450 -444 -455 -444 -5 0
-210 200 -455 444 -245 244 -461 452 -480 462 -106 55 -212 67 -300 35z" fill="#000000" stroke="none"/>
<path d="M2215 2641 c-91 -26 -109 -42 -717 -648 -470 -469 -612 -617 -632
-657 -14 -28 -26 -59 -26 -68 0 -9 -5 -20 -10 -23 -13 -8 -13 -152 0 -160 6
-3 10 -14 10 -24 0 -28 48 -112 87 -152 36 -38 126 -89 155 -89 9 0 20 -4 23
-10 8 -13 152 -13 160 0 3 6 14 10 24 10 57 0 125 60 561 496 245 244 452 444
460 444 8 0 215 -200 460 -444 436 -436 504 -496 561 -496 10 0 21 -4 24 -10
8 -13 152 -13 160 0 3 6 14 10 24 10 57 0 125 60 561 496 245 244 452 444 460
444 8 0 215 -200 460 -444 436 -436 504 -496 561 -496 10 0 21 -4 24 -10 8
-13 152 -13 160 0 3 6 14 10 24 10 57 0 125 60 561 496 245 244 452 444 460
444 8 0 215 -200 460 -444 436 -436 504 -496 561 -496 10 0 21 -4 24 -10 8
-13 152 -13 160 0 3 6 14 10 24 10 28 0 112 48 152 87 38 36 89 126 89 155 0
9 5 20 10 23 6 3 10 39 10 80 0 41 -4 77 -10 80 -5 3 -10 14 -10 23 0 9 -12
40 -26 68 -20 40 -162 187 -632 657 -491 489 -617 609 -657 628 -42 19 -67 23
-155 23 -88 0 -113 -4 -155 -23 -40 -19 -142 -116 -505 -477 -251 -250 -460
-454 -465 -454 -5 0 -214 204 -465 454 -363 361 -465 458 -505 477 -42 19 -67
23 -155 23 -88 0 -113 -4 -155 -23 -40 -19 -142 -116 -505 -477 -251 -250
-460 -454 -465 -454 -5 0 -214 204 -465 454 -370 369 -464 458 -505 476 -35
15 -75 23 -135 26 -47 2 -98 -1 -115 -5z" fill="#000000" stroke="none"/>
</g>
</svg>
