<?xml version="1.0" standalone="no"?>
<svg version="1.0" xmlns="http://www.w3.org/2000/svg"
 width="910.000000pt" height="910.000000pt"
 viewBox="0 0 910.000000 910.000000"
 preserveAspectRatio="xMidYMid meet">
<g transform="translate(0.000000,910.000000) scale(0.100000,-0.100000)">
<path d="M2775 8271 c-11 -5 -47 -11 -80 -15 -110 -12 -305 -65 -450 -121 -22
-9 -48 -18 -59 -22 -45 -15 -269 -135 -351 -189 -222 -145 -450 -363 -599
-574 -101 -142 -217 -360 -269 -505 -75 -212 -97 -295 -125 -485 -22 -149 -22
-481 1 -625 48 -315 123 -534 277 -810 86 -154 214 -319 362 -467 178 -178
374 -317 593 -423 141 -68 226 -101 349 -137 154 -44 275 -66 466 -84 167 -16
178 -16 245 1 85 22 160 67 206 126 60 75 74 120 74 234 -1 89 -4 106 -27 151
-35 66 -70 108 -122 142 -66 45 -122 60 -251 66 -301 16 -546 95 -790 254 -71
47 -137 103 -230 196 -72 72 -153 165 -180 206 -65 98 -155 277 -183 365 -12
39 -27 85 -33 102 -11 34 -22 91 -40 208 -15 92 -6 368 15 465 17 78 40 164
58 215 44 122 120 267 193 369 85 119 163 205 262 287 92 78 239 174 318 208
28 13 64 29 80 36 38 17 202 68 270 85 28 6 108 16 178 22 90 7 168 7 257 -1
143 -12 179 -19 330 -67 126 -40 267 -107 375 -180 93 -62 257 -202 282 -241
17 -26 18 -186 23 -3018 5 -2912 5 -2991 24 -3025 36 -66 88 -127 132 -155
101 -64 213 -80 311 -46 104 35 172 95 229 201 19 34 19 113 24 3025 5 2832 6
2992 23 3018 25 39 189 179 282 241 108 73 249 140 375 180 150 47 186 55 325
67 133 11 347 1 440 -21 71 -17 233 -68 275 -87 160 -72 265 -136 394 -242
136 -112 285 -298 370 -466 46 -92 76 -161 76 -177 0 -8 4 -18 8 -24 5 -5 18
-47 30 -94 11 -47 26 -105 32 -130 17 -67 24 -363 11 -445 -18 -118 -29 -174
-40 -208 -6 -17 -21 -63 -33 -102 -28 -88 -118 -267 -183 -365 -27 -41 -108
-134 -180 -206 -91 -91 -160 -150 -230 -196 -244 -160 -487 -238 -790 -254
-129 -6 -185 -21 -251 -66 -52 -34 -87 -76 -122 -142 -23 -45 -26 -62 -27
-151 0 -114 14 -159 74 -234 46 -59 121 -104 206 -126 67 -17 78 -17 245 -1
212 20 323 42 518 100 214 65 474 201 676 354 215 163 450 431 576 657 47 85
116 225 125 255 4 14 11 30 15 35 10 13 58 154 76 225 59 222 78 375 78 610 0
194 -10 307 -40 450 -54 255 -151 500 -285 718 -108 176 -202 294 -345 433
-176 170 -340 288 -551 395 -68 34 -131 64 -141 68 -9 3 -35 12 -57 21 -147
57 -281 94 -450 123 -130 22 -603 22 -735 -1 -176 -30 -310 -68 -470 -132 -63
-25 -218 -101 -290 -142 -76 -43 -219 -143 -288 -202 -41 -33 -77 -61 -82 -61
-5 0 -41 28 -82 61 -73 62 -212 159 -285 200 -158 89 -366 179 -508 219 -208
59 -319 73 -620 76 -148 2 -279 -1 -290 -5z" fill="#000000" stroke="none"/>
</g>
</svg>
