<?xml version="1.0" standalone="no"?>
<svg version="1.0" xmlns="http://www.w3.org/2000/svg"
 width="754.000000pt" height="838.000000pt"
 viewBox="0 0 754.000000 838.000000"
 preserveAspectRatio="xMidYMid meet">
<g transform="translate(0.000000,838.000000) scale(0.100000,-0.100000)">
<path d="M3616 7539 c-90 -24 -178 -67 -252 -123 -32 -24 -590 -577 -1240
-1228 -1181 -1183 -1181 -1183 -1222 -1268 -23 -47 -51 -122 -63 -168 -16 -63
-19 -103 -16 -169 7 -139 33 -230 96 -336 92 -156 242 -265 429 -311 53 -13
142 -16 547 -16 426 0 485 -2 499 -16 14 -14 16 -142 16 -1266 0 -1340 -2
-1268 48 -1408 35 -98 120 -213 206 -279 91 -70 189 -112 326 -141 76 -16
1542 -9 1620 8 68 14 95 25 189 71 125 61 253 205 303 341 50 134 48 81 48
1413 0 1119 2 1247 16 1261 14 14 73 16 498 16 440 0 490 2 559 19 83 21 178
65 249 118 119 87 213 232 250 388 16 71 15 248 -4 322 -8 34 -35 101 -58 150
-43 88 -43 88 -1224 1271 -650 651 -1208 1204 -1241 1229 -121 92 -275 144
-424 142 -47 -1 -117 -10 -155 -20z m1312 -1792 c893 -893 1130 -1135 1120
-1145 -9 -9 -159 -12 -643 -12 -562 0 -637 -2 -681 -17 -59 -20 -88 -37 -133
-77 -46 -43 -75 -91 -95 -158 -14 -51 -16 -187 -16 -1456 0 -1267 -1 -1400
-16 -1406 -9 -3 -316 -6 -684 -6 -368 0 -675 3 -684 6 -15 6 -16 139 -16 1406
0 1269 -2 1405 -16 1456 -20 67 -49 115 -95 158 -45 40 -74 57 -133 77 -44 15
-119 17 -681 17 -484 0 -634 3 -643 12 -10 10 227 252 1120 1145 623 623 1140
1133 1148 1133 8 0 525 -510 1148 -1133z" fill="#000000" stroke="none"/>
</g>
</svg>
