<?xml version="1.0" standalone="no"?>
<svg version="1.0" xmlns="http://www.w3.org/2000/svg"
 width="805.000000pt" height="895.000000pt"
 viewBox="0 0 805.000000 895.000000"
 preserveAspectRatio="xMidYMid meet">
<g transform="translate(0.000000,895.000000) scale(0.100000,-0.100000)">
<path d="M3208 8125 c-3 -3 -34 -10 -69 -16 -145 -23 -283 -98 -397 -218 -51
-53 -80 -97 -120 -178 -41 -81 -61 -154 -72 -258 -6 -54 -10 -613 -10 -1386 0
-1035 -3 -1299 -13 -1307 -8 -7 -196 -12 -557 -15 -484 -3 -551 -6 -600 -21
-30 -10 -69 -24 -87 -32 -17 -8 -33 -14 -36 -14 -3 0 -33 -16 -67 -36 -71 -41
-179 -139 -220 -200 -58 -83 -99 -175 -122 -269 -17 -73 -15 -268 4 -340 26
-100 46 -145 102 -235 32 -51 2515 -2541 2616 -2624 70 -57 141 -100 205 -123
93 -34 192 -53 270 -53 131 0 292 48 406 121 47 30 414 391 1365 1342 1146
1147 1306 1310 1340 1372 75 133 108 263 101 400 -7 156 -43 266 -128 395 -36
55 -127 147 -184 187 -51 36 -152 83 -222 105 -65 20 -95 21 -613 25 -360 3
-549 8 -557 15 -10 8 -13 272 -13 1307 0 773 -4 1332 -10 1386 -5 50 -17 115
-26 145 -18 59 -60 148 -98 208 -27 42 -118 137 -167 174 -81 60 -190 108
-294 129 -43 9 -289 14 -891 16 -457 2 -833 1 -836 -2z m1581 -738 c8 -10 11
-447 13 -1558 3 -1544 3 -1544 31 -1601 32 -63 103 -135 164 -167 22 -11 69
-25 104 -31 40 -6 320 -10 732 -10 628 0 667 -1 667 -17 0 -21 -2442 -2463
-2462 -2463 -20 0 -2469 2443 -2468 2463 0 16 39 17 668 17 411 0 691 4 731
10 35 6 82 20 104 31 61 32 132 104 164 167 28 57 28 57 31 1601 2 1111 5
1548 13 1558 9 11 147 13 754 13 607 0 745 -2 754 -13z" fill="#000000" stroke="none"/>
</g>
</svg>
