<?xml version="1.0" standalone="no"?>
<svg version="1.0" xmlns="http://www.w3.org/2000/svg"
 width="835.000000pt" height="799.000000pt"
 viewBox="0 0 835.000000 799.000000"
 preserveAspectRatio="xMidYMid meet">
<g transform="translate(0.000000,799.000000) scale(0.100000,-0.100000)">
<path d="M3949 7166 c-3 -3 -79 -13 -170 -21 -221 -21 -338 -40 -539 -90 -36
-9 -90 -22 -120 -30 -55 -13 -287 -88 -325 -105 -11 -5 -60 -25 -110 -46 -134
-55 -326 -150 -455 -228 -166 -98 -356 -237 -500 -363 -126 -111 -150 -135
-271 -273 -212 -242 -387 -536 -492 -825 -53 -147 -60 -179 -60 -265 0 -75 4
-93 31 -151 38 -78 100 -140 180 -177 57 -27 57 -27 3067 -27 3010 0 3010 0
3067 27 80 37 142 99 180 177 27 58 31 76 31 151 0 53 -6 106 -17 140 -19 60
-69 195 -93 250 -28 67 -134 271 -173 335 -234 383 -598 736 -1018 989 -129
77 -344 186 -477 240 -49 21 -99 41 -110 46 -48 21 -298 99 -380 119 -49 12
-106 26 -125 31 -117 31 -274 56 -470 77 -145 15 -640 29 -651 19z m599 -745
c178 -27 211 -32 277 -45 64 -13 98 -21 235 -56 50 -12 214 -66 245 -79 11 -5
61 -26 110 -46 116 -48 285 -135 405 -210 158 -99 288 -203 431 -345 140 -139
272 -302 267 -329 -3 -14 -236 -16 -2333 -16 -2097 0 -2330 2 -2333 16 -5 26
126 188 267 330 140 140 269 243 433 345 119 74 288 162 403 209 50 20 99 41
110 46 67 29 315 101 450 129 120 26 277 48 450 64 78 8 511 -2 583 -13z" fill="#000000" stroke="none"/>
<path d="M1467 4149 c-94 -22 -178 -89 -228 -181 -32 -60 -34 -67 -34 -169 0
-96 3 -111 28 -161 38 -74 98 -132 176 -171 66 -32 66 -32 2776 -32 2710 0
2710 0 2776 32 78 39 138 97 176 171 25 50 28 65 28 161 0 102 -2 109 -34 169
-40 74 -93 124 -171 161 -55 26 -55 26 -2755 28 -1553 0 -2716 -3 -2738 -8z" fill="#000000" stroke="none"/>
<path d="M1057 3010 c-76 -29 -146 -89 -187 -159 -8 -14 -24 -51 -34 -82 -14
-44 -17 -76 -14 -160 9 -209 45 -388 115 -584 35 -95 117 -268 153 -322 17
-24 30 -46 30 -49 0 -3 33 -48 72 -102 93 -124 256 -287 380 -380 54 -39 99
-72 102 -72 3 0 24 -13 48 -29 58 -39 98 -59 283 -141 40 -18 172 -58 255 -78
203 -48 173 -47 1925 -47 1744 0 1729 0 1915 46 151 37 166 41 197 55 17 8 36
14 42 14 6 0 19 4 29 9 9 5 62 30 117 56 55 25 127 63 160 83 186 112 401 307
533 484 39 54 72 99 72 102 0 3 13 25 30 49 54 81 155 309 190 432 42 147 69
312 77 474 4 85 1 116 -13 160 -36 109 -97 181 -194 229 -55 27 -55 27 -3145
29 -3004 2 -3091 2 -3138 -17z m5689 -724 c6 -17 -42 -122 -98 -214 -82 -134
-220 -277 -346 -356 -130 -82 -245 -129 -397 -163 -75 -17 -179 -18 -1720 -18
-1541 0 -1645 1 -1720 18 -209 47 -378 131 -526 263 -124 110 -218 237 -289
389 -17 37 -29 73 -26 81 5 12 382 14 2561 14 2179 0 2556 -2 2561 -14z" fill="#000000" stroke="none"/>
</g>
</svg>
