<?xml version="1.0" standalone="no"?>
<svg version="1.0" xmlns="http://www.w3.org/2000/svg"
 width="985.000000pt" height="874.000000pt"
 viewBox="0 0 985.000000 874.000000"
 preserveAspectRatio="xMidYMid meet">
<g transform="translate(0.000000,874.000000) scale(0.100000,-0.100000)">
<path d="M1629 7916 c-3 -3 -32 -11 -65 -16 -191 -33 -337 -111 -466 -249
-192 -205 -272 -454 -272 -846 1 -160 24 -561 39 -655 3 -19 10 -100 15 -180
30 -439 102 -1089 144 -1295 18 -87 30 -130 63 -220 79 -215 193 -401 338
-554 89 -94 234 -210 320 -256 75 -41 164 -86 188 -94 15 -6 27 -18 27 -27 0
-9 -19 -40 -43 -68 -100 -118 -188 -275 -240 -426 -38 -112 -51 -204 -51 -365
0 -127 5 -180 22 -255 46 -203 111 -357 230 -540 83 -129 134 -191 271 -333
235 -242 490 -448 692 -559 36 -20 75 -41 85 -47 18 -10 38 -18 129 -54 119
-48 244 -70 385 -70 229 0 419 52 614 170 133 81 229 158 352 284 154 159 282
331 402 544 28 50 67 117 88 150 36 60 36 60 58 32 12 -15 37 -56 55 -90 65
-123 175 -296 263 -413 101 -136 268 -309 379 -394 257 -198 493 -283 779
-283 141 0 266 22 385 70 117 47 112 44 220 103 195 108 464 327 696 568 138
143 210 236 296 379 85 145 130 244 167 373 55 187 69 426 35 585 -20 94 -70
242 -105 310 -46 91 -117 198 -171 262 -25 29 -43 60 -41 69 2 10 16 22 32 27
56 19 235 125 327 194 190 143 340 330 451 563 81 171 124 321 148 515 6 44
12 91 16 105 15 65 83 741 104 1040 5 74 12 155 15 180 16 118 38 494 38 655
1 241 -24 400 -88 560 -43 107 -103 200 -183 286 -168 179 -374 263 -647 263
-161 0 -264 -16 -481 -78 -85 -24 -246 -90 -354 -146 -113 -58 -197 -104 -211
-116 -8 -8 -19 -14 -22 -14 -11 0 -226 -148 -297 -203 -201 -159 -321 -267
-555 -502 -260 -259 -444 -465 -671 -750 -204 -255 -299 -385 -479 -651 -52
-78 -101 -147 -108 -153 -18 -14 -24 -7 -129 149 -345 512 -715 966 -1123
1375 -247 249 -303 302 -435 411 -247 204 -452 341 -680 455 -303 151 -541
216 -825 226 -66 3 -123 2 -126 -1z m291 -751 c87 -22 131 -37 218 -74 313
-134 623 -363 993 -731 194 -193 330 -343 510 -559 113 -135 271 -336 319
-405 8 -11 53 -73 100 -138 120 -165 243 -347 353 -526 52 -84 79 -131 155
-272 60 -111 102 -168 150 -203 51 -37 115 -63 178 -71 54 -8 141 8 199 35 74
35 133 103 204 235 144 267 310 527 530 829 312 428 582 747 910 1075 193 192
334 315 516 450 137 102 201 142 328 209 195 103 361 157 508 168 60 4 83 2
112 -12 21 -10 46 -29 56 -44 10 -14 27 -53 37 -86 16 -51 19 -92 19 -260 -1
-110 -6 -256 -13 -325 -16 -162 -31 -341 -42 -510 -5 -74 -14 -175 -20 -225
-5 -49 -15 -142 -21 -205 -23 -249 -52 -494 -78 -660 -8 -53 -31 -133 -51
-175 -5 -11 -17 -38 -26 -60 -25 -56 -79 -141 -128 -198 -78 -93 -235 -193
-376 -240 -90 -29 -117 -36 -215 -54 -79 -14 -151 -18 -340 -18 -135 1 -271 6
-310 12 -38 7 -116 17 -172 24 -79 9 -114 9 -164 0 -72 -15 -147 -58 -200
-118 -74 -82 -107 -232 -74 -335 22 -66 66 -138 110 -177 45 -39 129 -77 190
-85 28 -4 66 -11 85 -16 19 -5 78 -18 130 -30 130 -29 338 -100 449 -155 170
-83 289 -175 369 -283 28 -37 61 -92 73 -122 19 -46 23 -73 22 -165 0 -126
-15 -182 -82 -309 -73 -138 -181 -268 -356 -428 -236 -218 -392 -325 -548
-378 -54 -18 -80 -22 -130 -17 -99 10 -165 39 -282 122 -126 89 -314 318 -420
510 -15 28 -49 88 -75 135 -52 95 -138 271 -240 495 -46 101 -80 211 -80 261
0 50 -29 137 -63 191 -27 43 -92 100 -142 126 -17 8 -59 21 -94 28 -50 9 -77
9 -129 0 -36 -7 -79 -19 -96 -28 -51 -26 -116 -83 -143 -126 -34 -54 -63 -141
-63 -191 0 -52 -31 -149 -85 -271 -73 -164 -239 -500 -278 -562 -15 -24 -27
-45 -27 -48 0 -10 -130 -207 -179 -270 -71 -92 -180 -203 -246 -250 -117 -83
-183 -112 -282 -122 -50 -5 -76 -1 -130 17 -156 53 -311 159 -550 379 -117
107 -221 222 -295 326 -44 62 -90 153 -120 237 -17 49 -22 86 -23 168 0 86 4
116 23 165 12 33 45 90 73 127 114 153 313 278 593 373 72 24 174 53 226 65
52 12 111 25 130 30 19 5 58 12 85 16 61 8 145 46 190 85 44 39 88 111 110
177 33 103 0 253 -74 335 -53 60 -128 103 -200 118 -50 9 -85 9 -164 0 -56 -7
-133 -17 -172 -24 -39 -6 -175 -11 -310 -12 -189 0 -261 4 -340 18 -98 18
-125 25 -215 54 -83 28 -194 85 -261 134 -63 46 -129 115 -176 184 -66 97
-127 247 -144 354 -25 161 -50 365 -78 656 -6 61 -16 153 -21 205 -6 52 -15
156 -20 230 -11 147 -22 288 -42 505 -7 77 -13 228 -13 335 0 163 3 205 19
255 23 74 46 107 88 129 26 13 51 16 113 12 44 -2 109 -12 145 -21z" fill="#000000" stroke="none"/>
</g>
</svg>
