<?xml version="1.0" standalone="no"?>
<svg version="1.0" xmlns="http://www.w3.org/2000/svg"
 width="913.000000pt" height="766.000000pt"
 viewBox="0 0 913.000000 766.000000"
 preserveAspectRatio="xMidYMid meet">
<g transform="translate(0.000000,766.000000) scale(0.100000,-0.100000)">
<path d="M4715 6829 c-27 -4 -135 -13 -240 -18 -190 -11 -326 -26 -505 -55
-152 -26 -348 -66 -445 -92 -33 -8 -85 -22 -115 -29 -30 -8 -77 -20 -105 -29
-27 -8 -68 -20 -90 -26 -121 -36 -343 -118 -507 -189 -284 -122 -603 -304
-823 -470 -161 -121 -335 -281 -454 -415 -178 -204 -278 -346 -376 -541 -73
-146 -83 -171 -130 -311 -73 -223 -98 -384 -99 -659 0 -136 5 -240 17 -325 22
-161 51 -288 83 -357 8 -17 14 -36 14 -42 0 -15 72 -160 116 -233 103 -172
266 -340 449 -462 39 -26 113 -68 165 -92 117 -56 123 -59 185 -78 185 -57
276 -71 470 -71 215 0 323 19 525 92 343 124 643 396 805 728 60 124 96 226
128 365 18 81 21 126 21 300 0 174 -3 219 -21 300 -12 52 -34 131 -48 175 -34
104 -105 252 -163 340 -106 162 -264 320 -427 429 -66 45 -206 118 -270 142
-57 21 -120 43 -160 54 -56 15 -208 41 -280 46 -83 7 -105 12 -105 27 1 6 21
26 46 42 134 89 191 126 204 132 8 4 42 23 75 43 107 65 349 178 530 247 22 9
49 19 60 24 40 17 295 95 400 123 33 8 94 23 135 31 41 9 91 21 110 26 19 5
62 14 95 18 33 5 92 14 130 20 39 7 98 16 133 22 150 24 360 34 687 34 327 0
537 -11 687 -34 35 -6 95 -15 133 -21 167 -25 371 -68 559 -119 96 -25 194
-27 256 -4 96 36 175 110 216 203 15 34 19 68 19 145 0 83 -4 108 -23 148 -43
91 -134 170 -227 197 -118 34 -250 68 -335 86 -317 67 -544 99 -810 114 -91 5
-212 14 -270 20 -121 11 -351 11 -425 -1z m-2205 -2269 c19 -7 55 -20 80 -28
124 -41 284 -169 364 -291 74 -113 102 -186 122 -318 14 -92 14 -114 0 -206
-20 -132 -48 -205 -122 -318 -80 -122 -240 -250 -364 -291 -25 -8 -61 -21 -80
-27 -49 -17 -245 -25 -305 -13 -102 21 -141 34 -196 61 -163 81 -286 201 -365
356 -59 114 -69 164 -69 335 0 125 4 167 19 215 49 154 142 288 268 386 97 76
184 115 343 153 37 9 270 -2 305 -14z" fill="#000000" stroke="none"/>
<path d="M6669 5305 c-3 -2 -38 -9 -79 -15 -74 -10 -135 -25 -235 -56 -62 -19
-68 -22 -185 -78 -234 -111 -435 -288 -592 -523 -53 -80 -67 -105 -116 -213
-32 -71 -69 -187 -94 -295 -20 -87 -23 -127 -23 -305 0 -224 8 -274 68 -465
105 -333 346 -635 652 -817 105 -62 254 -126 365 -155 76 -20 203 -42 280 -49
89 -7 110 -12 110 -27 0 -6 -55 -48 -122 -92 -67 -44 -127 -82 -133 -84 -5 -2
-37 -21 -70 -41 -75 -46 -280 -146 -400 -195 -49 -20 -99 -41 -110 -46 -63
-27 -339 -116 -430 -138 -100 -25 -254 -62 -297 -72 -48 -11 -98 -19 -228 -39
-41 -6 -100 -15 -130 -20 -135 -23 -367 -35 -690 -35 -388 0 -556 12 -825 57
-33 5 -84 14 -113 18 -29 5 -76 14 -105 20 -29 7 -83 19 -122 27 -68 15 -106
25 -227 58 -74 20 -181 19 -238 -2 -96 -36 -175 -110 -216 -203 -15 -34 -19
-68 -19 -145 0 -83 4 -108 23 -148 28 -60 93 -131 146 -162 41 -23 75 -35 176
-60 30 -7 82 -21 115 -30 33 -9 94 -23 135 -31 41 -9 107 -22 145 -30 216 -43
423 -70 650 -84 94 -5 227 -15 296 -21 70 -7 173 -9 230 -6 57 3 194 11 304
16 173 9 254 17 480 45 94 12 366 60 450 80 204 48 261 63 355 91 30 9 75 23
100 30 89 27 137 44 255 88 134 50 153 58 243 99 34 15 65 28 68 28 7 0 230
112 303 153 139 77 321 193 451 290 142 106 334 282 449 411 164 186 277 348
374 540 74 145 84 169 132 312 71 215 97 389 98 659 1 137 -4 239 -16 325 -22
161 -51 288 -83 357 -8 17 -14 36 -14 42 0 21 -89 192 -143 274 -139 213 -339
390 -572 507 -90 45 -109 53 -195 83 -141 49 -319 77 -489 77 -76 0 -140 -2
-142 -5z m286 -735 c97 -21 132 -33 200 -65 72 -33 174 -111 229 -173 80 -91
132 -179 168 -284 19 -55 22 -83 22 -228 -1 -141 -4 -174 -22 -228 -52 -154
-153 -291 -287 -390 -140 -103 -294 -148 -480 -139 -108 5 -126 9 -235 50
-133 50 -273 164 -354 286 -74 113 -102 186 -122 318 -14 92 -14 114 0 206 14
97 24 131 63 217 31 70 104 169 170 231 112 105 240 170 398 203 38 7 210 5
250 -4z" fill="#000000" stroke="none"/>
</g>
</svg>
