<?xml version="1.0" standalone="no"?>
<svg version="1.0" xmlns="http://www.w3.org/2000/svg"
 width="799.000000pt" height="874.000000pt"
 viewBox="0 0 799.000000 874.000000"
 preserveAspectRatio="xMidYMid meet">
<g transform="translate(0.000000,874.000000) scale(0.100000,-0.100000)">
<path d="M1106 7912 c-3 -5 -20 -12 -38 -16 -49 -10 -133 -70 -173 -124 -19
-26 -40 -65 -47 -87 -6 -22 -15 -44 -20 -49 -11 -13 -10 -142 1 -164 5 -9 17
-39 27 -66 19 -54 79 -126 134 -161 53 -33 135 -53 237 -59 51 -2 110 -10 130
-17 171 -54 244 -93 336 -178 125 -116 205 -253 240 -411 7 -29 13 -687 16
-1840 6 -1769 6 -1796 26 -1835 47 -95 108 -155 200 -199 31 -15 62 -19 135
-19 81 0 103 3 152 25 97 44 152 107 205 233 4 11 10 832 13 1825 5 1805 5
1805 28 1870 12 36 30 81 39 100 22 47 95 158 130 196 40 44 134 124 158 135
11 5 27 13 35 19 36 23 129 61 189 78 91 24 272 23 366 -1 154 -41 310 -141
407 -262 63 -78 131 -220 155 -320 17 -76 18 -175 18 -2225 0 -2050 -1 -2149
-18 -2225 -25 -105 -93 -245 -161 -327 -80 -96 -175 -164 -316 -227 -54 -24
-139 -41 -230 -47 -52 -3 -117 -13 -145 -21 -27 -9 -73 -31 -102 -50 -82 -54
-125 -121 -148 -231 -12 -56 -12 -75 0 -134 8 -38 23 -85 34 -106 38 -73 132
-152 201 -167 19 -4 40 -12 47 -17 14 -12 192 -5 293 11 84 13 183 36 250 58
152 51 331 146 450 241 96 76 200 184 276 285 41 54 74 102 74 107 0 21 34 8
88 -33 52 -40 207 -137 217 -137 3 0 33 -13 67 -30 34 -16 66 -30 71 -30 5 0
23 -6 40 -14 36 -16 105 -36 222 -62 63 -14 123 -18 280 -19 156 0 217 4 280
18 106 24 183 46 222 63 17 8 36 14 42 14 17 0 154 69 231 115 239 144 456
383 571 632 47 100 53 114 69 163 49 146 73 305 74 480 0 186 -28 356 -84 505
-120 320 -318 567 -603 753 -74 48 -111 68 -207 110 -66 29 -189 69 -235 78
-22 3 -47 10 -55 14 -8 4 -81 13 -163 20 -113 10 -177 10 -275 1 -154 -14
-294 -45 -389 -87 -17 -8 -35 -14 -40 -14 -5 0 -44 -18 -88 -40 -43 -23 -84
-39 -91 -36 -11 4 -14 257 -17 1288 -4 1096 -7 1297 -20 1378 -24 144 -48 238
-83 317 -8 17 -14 35 -14 40 0 12 -81 170 -116 225 -78 125 -231 294 -349 385
-114 89 -298 187 -435 233 -149 50 -296 73 -475 73 -243 1 -424 -38 -641 -139
-148 -68 -321 -190 -422 -298 -29 -31 -60 -56 -67 -56 -8 0 -29 16 -47 36 -45
49 -180 162 -253 212 -76 51 -219 124 -310 158 -90 33 -158 51 -275 71 -111
19 -315 28 -324 15z m4736 -4496 c177 -37 330 -129 436 -261 55 -68 106 -149
117 -186 4 -13 11 -28 15 -34 5 -5 16 -41 26 -80 25 -95 25 -275 0 -369 -9
-38 -21 -76 -25 -85 -5 -9 -21 -43 -37 -76 -35 -71 -89 -143 -158 -209 -66
-62 -119 -99 -198 -135 -119 -55 -171 -66 -323 -66 -120 0 -151 4 -215 24 -87
28 -165 68 -235 121 -55 41 -130 116 -171 170 -41 55 -93 168 -114 249 -26 96
-27 276 -4 370 20 79 62 175 105 239 82 122 234 245 359 291 131 49 297 63
422 37z" fill="#000000" stroke="none"/>
</g>
</svg>
