<?xml version="1.0" standalone="no"?>
<svg version="1.0" xmlns="http://www.w3.org/2000/svg"
 width="871.000000pt" height="871.000000pt"
 viewBox="0 0 871.000000 871.000000"
 preserveAspectRatio="xMidYMid meet">
<g transform="translate(0.000000,871.000000) scale(0.100000,-0.100000)">
<path d="M2920 7881 c-8 -4 -37 -11 -65 -15 -61 -8 -127 -28 -225 -69 -100
-42 -189 -96 -281 -173 -85 -71 -144 -136 -213 -239 -71 -103 -106 -183 -166
-380 -5 -17 -13 -70 -16 -119 -5 -63 -12 -94 -24 -106 -12 -12 -43 -19 -106
-24 -49 -3 -102 -11 -119 -16 -196 -60 -277 -95 -380 -165 -101 -69 -178 -138
-244 -219 -125 -153 -204 -320 -242 -511 -16 -78 -16 -342 0 -425 30 -158 120
-358 207 -463 13 -16 24 -36 24 -45 0 -8 -23 -48 -50 -88 -42 -61 -93 -159
-130 -249 -44 -107 -63 -229 -63 -395 0 -158 11 -235 50 -350 37 -110 68 -173
134 -276 124 -191 347 -364 567 -440 88 -30 249 -64 304 -64 20 0 43 -6 51
-14 8 -9 16 -47 21 -101 6 -88 27 -185 52 -242 8 -17 14 -36 14 -42 0 -19 99
-201 138 -256 50 -69 156 -179 222 -230 127 -98 272 -168 435 -212 57 -15 106
-18 265 -17 166 0 206 4 272 22 148 40 273 99 381 178 34 24 67 44 74 44 7 0
27 -13 45 -28 59 -50 214 -134 308 -165 147 -50 159 -52 365 -52 207 0 208 0
370 52 258 81 509 296 631 539 23 45 43 74 53 74 9 0 407 -391 886 -869 867
-866 916 -911 978 -911 9 0 19 -4 22 -10 8 -13 152 -13 160 0 3 6 13 10 22 10
35 0 121 51 164 97 26 28 53 70 63 98 10 28 22 58 27 67 12 24 12 155 -1 163
-5 3 -10 13 -10 22 0 62 -45 111 -912 979 -699 700 -869 875 -864 890 4 11 38
34 76 52 154 75 331 240 426 397 40 67 88 169 107 230 52 163 52 163 52 370
-1 210 1 196 -56 380 -24 76 -98 209 -183 330 -7 9 2 30 30 69 55 79 68 102
105 176 38 78 53 120 82 220 18 65 21 102 21 275 0 175 -3 210 -22 275 -43
152 -81 235 -160 355 -55 83 -165 201 -242 260 -67 52 -203 133 -236 141 -13
3 -27 10 -30 15 -3 5 -12 9 -21 9 -8 0 -29 6 -46 14 -57 25 -154 46 -242 52
-54 5 -92 13 -101 21 -8 8 -14 31 -14 51 0 55 -34 216 -64 304 -52 149 -141
292 -264 420 -46 47 -117 109 -158 137 -64 43 -176 102 -249 131 -35 15 -128
40 -190 52 -81 15 -335 16 -410 0 -68 -14 -160 -39 -190 -52 -93 -39 -220
-106 -264 -139 -30 -23 -60 -41 -68 -41 -7 0 -45 22 -85 49 -40 27 -99 62
-130 79 -72 38 -214 87 -298 103 -79 14 -349 22 -370 10z m292 -741 c55 -22
66 -30 268 -194 67 -54 145 -110 173 -124 45 -22 66 -26 147 -26 87 0 100 2
160 32 36 18 92 55 125 83 33 27 97 81 142 119 45 38 108 82 140 97 52 25 69
28 163 28 96 0 110 -3 165 -29 83 -41 155 -112 196 -194 33 -65 34 -70 34
-187 -1 -185 1 -181 -379 -565 -172 -173 -406 -411 -521 -527 -115 -117 -215
-213 -222 -213 -7 0 -197 186 -421 413 -543 548 -622 631 -653 681 -15 23 -34
67 -43 98 -18 62 -21 174 -7 210 5 13 12 35 15 49 10 45 86 149 141 190 74 56
143 78 242 79 58 0 96 -6 135 -20z m-1134 -1116 c57 -17 103 -44 203 -119 29
-22 215 -202 414 -400 559 -560 589 -591 579 -608 -18 -30 -910 -929 -935
-943 -15 -7 -51 -34 -80 -60 -30 -25 -81 -60 -114 -77 -57 -30 -66 -31 -180
-32 -117 0 -122 1 -187 34 -82 41 -153 113 -194 196 -27 55 -29 69 -29 170 0
101 2 114 28 164 16 30 60 90 97 135 38 45 92 108 119 141 28 33 65 89 83 125
29 58 32 74 33 155 0 69 -5 101 -20 135 -22 51 -100 158 -210 286 -41 49 -88
114 -103 144 -24 50 -27 65 -27 165 0 101 2 115 29 168 49 101 151 186 271
225 48 16 162 13 223 -4z m3673 2 c146 -44 253 -150 293 -288 20 -70 20 -138
1 -203 -22 -73 -40 -106 -83 -156 -67 -77 -202 -249 -226 -287 -12 -20 -31
-69 -40 -109 -15 -60 -16 -80 -6 -130 6 -32 21 -78 33 -103 19 -42 110 -161
221 -290 78 -91 116 -181 116 -279 0 -62 -11 -103 -48 -180 -35 -74 -104 -140
-186 -181 -67 -34 -73 -35 -185 -35 -110 0 -119 2 -176 31 -33 16 -92 55 -130
84 -104 81 -1007 990 -1003 1011 4 21 904 936 939 955 15 7 51 34 80 59 93 81
173 113 284 114 39 0 91 -6 116 -13z m-1518 -2073 c623 -630 622 -630 659
-703 32 -62 33 -70 33 -181 0 -112 -1 -118 -35 -185 -19 -38 -55 -90 -81 -115
-46 -44 -119 -86 -190 -108 -77 -24 -187 -9 -275 38 -22 11 -104 75 -184 141
-80 67 -167 132 -195 145 -27 13 -75 29 -106 35 -49 11 -67 10 -130 -5 -41
-10 -90 -28 -110 -41 -39 -24 -218 -164 -288 -226 -50 -43 -82 -61 -156 -83
-65 -19 -133 -19 -203 1 -178 52 -302 217 -302 404 0 70 16 132 50 201 15 28
131 154 329 354 169 171 403 408 521 528 126 127 221 217 232 217 11 0 184
-167 431 -417z" fill="#000000" stroke="none"/>
</g>
</svg>
