<?xml version="1.0" encoding="UTF-8" standalone="no"?>
<!DOCTYPE svg PUBLIC "-//W3C//DTD SVG 20010904//EN" "http://www.w3.org/TR/2001/REC-SVG-20010904/DTD/svg10.dtd">

<svg xmlns="http://www.w3.org/2000/svg" width="11.1111in" height="11.1111in" viewBox="0 0 1000 1000">
    <path id="Selection" fill="currentColor" stroke="black" stroke-width="1" d="M 406.00,83.42
           C 428.37,80.70 451.45,85.19 472.00,94.00
             479.04,97.02 484.65,100.42 491.00,104.67
             493.21,106.15 497.42,109.55 500.00,109.55
             502.81,109.55 511.99,102.65 515.00,100.81
             524.60,94.93 535.17,90.48 546.00,87.43
             594.33,73.79 646.13,89.99 678.70,128.00
             688.04,138.90 695.27,151.63 700.39,165.00
             706.39,180.67 709.19,198.26 709.00,215.00
             708.68,242.39 698.30,270.45 681.58,292.00
             681.58,292.00 654.09,321.00 654.09,321.00
             654.09,321.00 591.00,385.00 591.00,385.00
             591.00,385.00 544.00,433.00 544.00,433.00
             530.82,446.18 523.59,456.31 504.00,458.71
             483.87,461.19 472.02,449.02 459.00,436.00
             459.00,436.00 405.00,381.00 405.00,381.00
             405.00,381.00 353.04,329.00 353.04,329.00
             353.04,329.00 344.96,320.00 344.96,320.00
             323.81,297.88 314.53,292.42 301.31,263.00
             294.38,247.58 290.97,226.85 291.00,210.00
             291.06,172.39 309.03,135.31 338.00,111.46
             358.98,94.20 379.61,87.25 406.00,83.42 Z
           M 415.00,167.29
           C 405.72,168.82 398.40,171.33 391.01,177.47
             376.31,189.70 371.50,212.67 379.31,230.00
             385.13,242.91 398.02,254.02 408.00,264.00
             408.00,264.00 459.00,315.00 459.00,315.00
             459.00,315.00 471.04,328.00 471.04,328.00
             471.04,328.00 488.00,345.00 488.00,345.00
             490.33,347.33 496.84,354.80 500.00,354.80
             503.07,354.80 508.79,348.21 511.00,346.00
             511.00,346.00 538.04,318.00 538.04,318.00
             538.04,318.00 594.00,262.00 594.00,262.00
             604.24,251.76 616.91,240.93 621.91,227.00
             632.34,197.91 610.45,165.81 579.00,167.04
             563.60,167.64 556.97,174.32 546.00,183.56
             532.95,194.55 518.04,208.92 500.00,208.92
             481.96,208.92 467.05,194.55 454.00,183.56
             441.09,172.69 433.12,165.57 415.00,167.29 Z
           M 203.00,291.63
           C 210.35,290.53 216.72,291.10 224.00,291.63
             249.39,294.37 270.40,302.15 291.00,317.48
             301.30,325.14 310.63,336.00 320.00,344.96
             320.00,344.96 329.00,353.04 329.00,353.04
             329.00,353.04 372.00,396.00 372.00,396.00
             372.00,396.00 401.00,424.91 401.00,424.91
             401.00,424.91 435.00,458.00 435.00,458.00
             447.79,470.79 458.34,479.59 458.96,499.00
             459.59,518.85 447.90,529.10 435.00,542.00
             435.00,542.00 401.00,575.09 401.00,575.09
             401.00,575.09 379.00,597.00 379.00,597.00
             379.00,597.00 321.00,654.09 321.00,654.09
             321.00,654.09 295.00,679.33 295.00,679.33
             270.06,699.16 240.85,709.37 209.00,709.00
             152.99,708.34 102.77,669.85 87.58,616.00
             85.49,608.59 83.09,596.61 83.00,589.00
             82.76,567.81 83.85,551.92 92.28,532.00
             96.07,523.06 97.97,519.22 103.34,511.00
             104.97,508.51 109.55,502.72 109.55,500.00
             109.55,497.28 104.97,491.49 103.34,489.00
             97.97,480.78 96.07,476.94 92.28,468.00
             83.96,448.34 82.76,431.93 83.00,411.00
             83.07,405.50 84.31,398.44 85.40,393.00
             93.18,354.35 119.45,320.86 155.00,303.78
             166.94,298.05 179.91,294.31 193.00,292.43
             193.00,292.43 203.00,291.63 203.00,291.63 Z
           M 779.00,291.21
           C 779.00,291.21 785.00,291.21 785.00,291.21
             838.13,290.38 886.08,319.57 907.15,369.00
             912.41,381.34 916.84,398.57 917.00,412.00
             917.27,435.81 915.50,449.82 906.00,472.00
             902.98,479.04 899.58,484.65 895.33,491.00
             893.85,493.21 890.45,497.42 890.45,500.00
             890.45,502.58 893.85,506.79 895.33,509.00
             899.58,515.35 902.98,520.96 906.00,528.00
             915.50,550.18 917.27,564.19 917.00,588.00
             916.84,601.43 912.41,618.66 907.15,631.00
             886.10,680.37 838.08,709.62 785.00,709.00
             758.68,708.69 730.99,698.83 710.00,683.11
             698.26,674.31 689.49,664.07 679.00,654.04
             679.00,654.04 670.00,645.96 670.00,645.96
             670.00,645.96 627.00,603.00 627.00,603.00
             627.00,603.00 598.00,574.17 598.00,574.17
             598.00,574.17 565.00,542.00 565.00,542.00
             552.10,529.10 540.41,518.85 541.04,499.00
             541.66,479.59 552.21,470.79 565.00,458.00
             565.00,458.00 599.00,424.91 599.00,424.91
             599.00,424.91 628.00,396.00 628.00,396.00
             628.00,396.00 671.00,353.04 671.00,353.04
             671.00,353.04 680.00,344.96 680.00,344.96
             696.88,328.82 705.20,317.38 727.00,306.11
             740.12,299.32 754.35,294.54 769.00,292.43
             769.00,292.43 779.00,291.21 779.00,291.21 Z
           M 211.00,375.37
           C 202.82,376.29 195.10,377.60 188.00,382.09
             182.45,385.61 178.14,389.46 174.55,395.00
             171.82,399.21 169.56,404.12 168.43,409.00
             166.17,418.73 166.85,428.95 171.37,438.00
             174.69,444.62 178.08,447.64 182.71,453.00
             182.71,453.00 193.20,466.00 193.20,466.00
             201.59,476.49 208.92,485.84 208.92,500.00
             208.92,514.16 201.59,523.51 193.20,534.00
             193.20,534.00 182.71,547.00 182.71,547.00
             178.08,552.36 174.69,555.38 171.37,562.00
             166.69,571.38 166.12,581.97 168.67,592.00
             169.85,596.66 172.49,602.05 175.22,606.00
             179.07,611.58 183.21,614.95 189.00,618.37
             195.07,621.97 204.93,624.66 212.00,624.66
             231.99,624.66 244.90,611.10 258.00,598.00
             258.00,598.00 298.00,558.00 298.00,558.00
             298.00,558.00 321.00,535.28 321.00,535.28
             321.00,535.28 347.00,510.00 347.00,510.00
             349.09,507.91 354.80,502.96 354.80,500.00
             354.80,497.04 349.09,492.09 347.00,490.00
             347.00,490.00 321.00,464.72 321.00,464.72
             321.00,464.72 299.00,443.00 299.00,443.00
             299.00,443.00 260.00,404.00 260.00,404.00
             245.10,389.10 233.71,375.58 211.00,375.37 Z
           M 787.00,375.37
           C 762.39,378.13 754.70,389.30 738.00,406.00
             738.00,406.00 700.00,444.00 700.00,444.00
             700.00,444.00 679.00,464.72 679.00,464.72
             679.00,464.72 653.00,490.00 653.00,490.00
             650.91,492.09 645.20,497.04 645.20,500.00
             645.20,502.96 650.91,507.91 653.00,510.00
             653.00,510.00 678.00,534.28 678.00,534.28
             678.00,534.28 701.00,557.00 701.00,557.00
             701.00,557.00 743.00,599.00 743.00,599.00
             755.66,611.66 769.49,625.63 789.00,624.63
             796.27,624.25 804.73,622.08 811.00,618.37
             816.79,614.95 820.93,611.58 824.78,606.00
             827.51,602.05 830.15,596.66 831.33,592.00
             834.16,580.87 833.11,570.13 827.49,560.00
             824.22,554.11 821.47,551.83 817.29,547.00
             817.29,547.00 806.80,534.00 806.80,534.00
             798.41,523.51 791.08,514.16 791.08,500.00
             791.08,485.84 798.41,476.49 806.80,466.00
             806.80,466.00 817.29,453.00 817.29,453.00
             821.25,448.42 823.63,446.51 826.91,441.00
             833.14,430.51 834.36,418.65 831.08,407.00
             829.82,402.56 826.80,396.72 824.07,393.00
             820.50,388.12 815.31,383.81 810.00,380.90
             803.66,377.43 794.21,375.44 787.00,375.37 Z
           M 495.00,541.43
           C 516.95,538.72 527.79,550.79 542.00,565.00
             542.00,565.00 593.00,617.00 593.00,617.00
             593.00,617.00 646.96,671.00 646.96,671.00
             646.96,671.00 655.04,680.00 655.04,680.00
             675.32,701.21 687.95,710.27 699.55,739.00
             722.64,796.20 701.93,865.07 649.00,897.94
             624.03,913.44 601.81,917.33 573.00,917.00
             557.75,916.82 536.61,910.54 523.00,903.73
             518.16,901.31 512.51,897.70 508.00,894.66
             505.95,893.27 502.48,890.45 500.00,890.45
             497.19,890.45 488.01,897.35 485.00,899.19
             475.40,905.07 464.83,909.52 454.00,912.57
             419.70,922.25 380.02,916.60 350.00,897.30
             339.73,890.70 331.37,882.93 323.09,874.00
             313.44,863.59 306.38,850.98 300.85,838.00
             293.84,821.55 290.80,802.83 291.00,785.00
             291.32,757.65 301.68,729.64 318.24,708.00
             326.27,697.50 336.89,688.69 345.91,679.00
             345.91,679.00 409.00,615.00 409.00,615.00
             409.00,615.00 455.00,568.00 455.00,568.00
             468.85,554.15 474.82,544.74 495.00,541.43 Z
           M 500.00,645.20
           C 495.06,646.73 491.60,651.40 488.00,655.00
             488.00,655.00 464.83,679.00 464.83,679.00
             464.83,679.00 445.00,699.00 445.00,699.00
             445.00,699.00 408.00,736.00 408.00,736.00
             397.76,746.24 384.55,757.57 378.87,771.00
             366.54,800.22 388.83,834.22 421.00,832.96
             436.12,832.37 443.23,825.51 454.00,816.44
             467.05,805.45 481.96,791.08 500.00,791.08
             518.04,791.08 532.95,805.45 546.00,816.44
             556.97,825.68 563.60,832.36 579.00,832.96
             611.17,834.22 633.46,800.22 621.13,771.00
             615.53,757.74 603.06,747.06 593.00,737.00
             593.00,737.00 556.00,700.00 556.00,700.00
             556.00,700.00 536.17,680.00 536.17,680.00
             536.17,680.00 513.00,656.00 513.00,656.00
             509.14,652.14 505.29,646.84 500.00,645.20 Z" />
</svg>