<?xml version="1.0" standalone="no"?>
<svg version="1.0" xmlns="http://www.w3.org/2000/svg"
 width="910.000000pt" height="910.000000pt"
 viewBox="0 0 910.000000 910.000000"
 preserveAspectRatio="xMidYMid meet">
<g transform="translate(0.000000,910.000000) scale(0.100000,-0.100000)">
<path d="M4385 8271 c-11 -5 -56 -12 -100 -16 -69 -6 -181 -31 -290 -63 -89
-27 -247 -97 -360 -160 -240 -133 -460 -339 -632 -592 -80 -118 -173 -312
-217 -455 -56 -182 -77 -306 -83 -494 -3 -101 0 -209 7 -276 7 -60 13 -126 14
-145 1 -35 1 -35 -104 -41 -179 -11 -305 -32 -460 -75 -30 -8 -63 -19 -72 -25
-10 -5 -23 -9 -30 -9 -7 -1 -31 -9 -53 -20 -22 -11 -43 -19 -48 -20 -4 0 -38
-15 -75 -32 -195 -94 -387 -233 -538 -390 -116 -120 -180 -205 -271 -358 -50
-85 -133 -259 -133 -281 0 -4 -5 -20 -12 -36 -31 -75 -63 -205 -85 -343 -22
-138 -22 -400 0 -540 23 -149 54 -278 85 -353 7 -16 12 -34 12 -42 0 -8 4 -16
9 -19 5 -3 12 -18 15 -33 9 -35 72 -163 121 -243 155 -258 394 -496 655 -651
62 -37 163 -86 265 -129 43 -18 183 -63 240 -76 113 -26 340 -54 445 -54 107
0 311 26 431 54 36 9 101 27 144 42 66 22 79 24 91 12 11 -11 12 -21 3 -48 -6
-19 -17 -60 -24 -90 -21 -86 -44 -180 -59 -240 -8 -30 -21 -84 -30 -120 -21
-83 -42 -170 -60 -240 -18 -70 -40 -157 -60 -240 -9 -36 -23 -92 -32 -125 -26
-101 -28 -176 -9 -237 23 -69 56 -125 97 -165 38 -36 122 -83 149 -83 10 0 21
-4 24 -10 4 -7 417 -10 1205 -10 788 0 1201 3 1205 10 3 6 14 10 24 10 25 0
110 46 145 78 63 60 116 177 116 261 0 25 -61 291 -135 591 -75 300 -143 567
-152 593 -14 44 -14 50 0 64 13 14 25 12 108 -15 185 -60 302 -80 518 -89 95
-4 169 -1 260 11 162 22 315 57 398 93 17 7 38 13 46 13 9 0 18 4 21 9 3 5 18
12 33 15 35 9 163 72 243 121 121 72 255 178 361 284 167 167 307 370 389 566
11 28 25 58 30 67 6 10 10 22 10 27 0 5 5 22 12 38 60 145 102 400 102 623 1
203 -24 362 -85 560 -55 173 -128 326 -232 480 -66 98 -115 159 -201 248 -173
179 -383 325 -610 422 -74 31 -241 84 -326 103 -95 21 -284 46 -375 50 -70 2
-70 2 -69 37 1 19 7 85 14 145 16 138 8 410 -15 526 -26 131 -62 261 -91 326
-8 17 -14 34 -14 39 0 12 -69 157 -114 239 -26 46 -93 145 -146 215 -31 41
-101 119 -154 173 -149 149 -310 264 -496 354 -271 131 -496 183 -815 189 -88
2 -169 -1 -180 -5z m410 -745 c159 -39 253 -78 385 -164 98 -63 220 -178 292
-274 60 -81 131 -216 158 -301 11 -34 25 -75 30 -92 6 -16 17 -86 26 -154 15
-115 15 -135 0 -253 -9 -70 -20 -138 -25 -150 -5 -13 -17 -50 -27 -83 -27 -87
-83 -197 -153 -300 -65 -95 -101 -187 -101 -257 0 -60 28 -147 68 -206 37 -57
71 -86 142 -123 39 -21 59 -24 155 -24 83 0 119 4 146 17 137 66 206 91 334
119 79 18 341 18 420 0 119 -26 172 -45 280 -96 110 -53 212 -122 294 -199 82
-77 182 -218 236 -331 86 -181 110 -287 110 -490 0 -150 -7 -201 -47 -338 -44
-149 -180 -370 -294 -478 -83 -78 -194 -154 -299 -204 -181 -86 -287 -110
-490 -110 -146 0 -197 7 -325 42 -86 24 -268 116 -345 174 -38 28 -113 93
-165 144 -75 73 -108 97 -155 115 -83 33 -188 33 -270 0 -72 -28 -151 -99
-191 -173 -29 -52 -29 -52 -32 -384 -3 -329 -2 -352 34 -493 8 -36 23 -92 31
-125 8 -33 22 -87 30 -120 8 -33 21 -85 29 -115 7 -30 21 -84 30 -120 16 -68
36 -147 60 -240 46 -183 47 -192 33 -201 -18 -11 -1260 -11 -1278 0 -14 9 -13
18 33 201 8 30 21 82 29 115 8 33 22 87 30 120 8 33 22 89 31 125 21 83 42
170 60 240 32 125 47 188 57 233 6 28 9 178 7 375 -3 327 -3 327 -31 383 -36
75 -117 150 -192 179 -82 33 -187 33 -270 0 -47 -18 -80 -42 -150 -110 -130
-126 -225 -195 -350 -255 -181 -86 -287 -110 -490 -110 -203 0 -309 24 -490
110 -105 50 -216 126 -299 204 -77 72 -178 215 -231 326 -86 181 -110 287
-110 490 0 146 7 197 42 325 24 86 116 268 173 345 74 99 122 147 225 227 145
113 278 174 480 219 79 18 341 18 420 0 33 -7 87 -21 120 -31 69 -21 203 -77
224 -94 9 -7 58 -11 130 -11 106 0 120 2 166 26 60 32 113 81 147 135 31 48
58 138 58 191 0 70 -37 162 -103 262 -74 109 -124 209 -151 296 -10 33 -22 70
-27 82 -4 12 -16 79 -25 149 -16 119 -16 135 -1 253 9 69 21 140 27 156 5 17
19 58 30 92 27 85 98 220 159 302 65 87 198 215 281 268 56 37 154 89 215 114
57 24 201 63 270 73 17 2 93 3 170 1 87 -1 166 -9 210 -19z" fill="#000000" stroke="none"/>
</g>
</svg>
