<?xml version="1.0" standalone="no"?>
<svg version="1.0" xmlns="http://www.w3.org/2000/svg"
 width="910.000000pt" height="910.000000pt"
 viewBox="0 0 910.000000 910.000000"
 preserveAspectRatio="xMidYMid meet">
<g transform="translate(0.000000,910.000000) scale(0.100000,-0.100000)">
<path d="M4310 8271 c-14 -4 -75 -11 -135 -15 -92 -6 -271 -31 -358 -51 -89
-19 -209 -49 -247 -60 -25 -7 -72 -21 -105 -30 -33 -9 -74 -23 -92 -31 -17 -8
-38 -14 -47 -14 -8 0 -32 -7 -53 -16 -21 -9 -47 -20 -58 -25 -198 -80 -394
-172 -485 -227 -19 -12 -55 -33 -80 -47 -54 -30 -159 -99 -267 -175 -146 -102
-338 -267 -489 -421 -153 -157 -260 -283 -375 -444 -70 -98 -189 -280 -189
-289 0 -4 -12 -25 -27 -49 -39 -63 -135 -258 -183 -372 -55 -135 -56 -136 -69
-168 -14 -35 -45 -127 -61 -182 -6 -22 -18 -62 -26 -90 -30 -97 -64 -248 -90
-395 -64 -363 -64 -883 0 -1260 9 -47 17 -94 20 -105 3 -11 14 -65 26 -120 12
-55 25 -111 30 -125 5 -14 18 -59 30 -100 26 -90 48 -154 66 -197 8 -17 14
-36 14 -42 0 -6 4 -19 10 -29 5 -9 28 -62 51 -117 37 -91 151 -326 169 -350 4
-5 20 -32 35 -60 78 -143 223 -349 368 -524 125 -150 362 -385 502 -497 183
-147 333 -249 525 -357 172 -97 260 -140 413 -202 34 -14 69 -29 77 -34 9 -5
30 -12 48 -15 17 -4 34 -12 37 -17 4 -5 15 -9 27 -9 11 0 34 -6 51 -14 32 -15
64 -25 162 -51 405 -107 638 -139 1025 -139 238 0 397 11 570 39 138 23 323
61 405 85 166 46 249 73 302 96 17 8 35 14 41 14 9 0 88 33 212 87 63 28 250
122 265 133 6 4 42 24 80 45 39 20 77 44 86 51 8 8 18 14 22 14 9 0 162 106
271 189 148 111 286 233 422 372 141 145 228 248 350 416 99 135 166 238 214
328 18 33 36 65 40 70 18 24 122 238 159 330 23 55 45 107 50 115 5 9 12 30
15 48 4 17 12 34 17 37 5 4 9 15 9 27 0 11 6 34 14 51 8 18 22 59 31 92 10 33
23 80 30 105 50 177 95 419 117 635 15 153 15 554 0 710 -20 204 -71 483 -117
635 -7 25 -21 72 -30 105 -21 75 -43 140 -61 182 -8 17 -14 36 -14 42 0 6 -4
19 -10 29 -5 9 -28 62 -51 117 -37 91 -141 306 -159 330 -4 6 -24 42 -45 80
-20 39 -44 77 -51 86 -8 8 -14 18 -14 22 0 16 -162 242 -274 382 -104 130
-403 430 -531 532 -322 257 -566 401 -964 571 -40 18 -78 32 -83 32 -6 0 -24
6 -41 14 -43 18 -107 40 -197 66 -41 12 -86 25 -100 30 -23 7 -53 15 -215 51
-90 20 -227 40 -375 56 -158 17 -600 27 -640 14z m505 -731 c157 -17 249 -29
300 -40 216 -47 244 -54 400 -105 93 -31 151 -53 200 -75 11 -5 43 -19 70 -30
95 -41 228 -112 344 -182 245 -150 533 -394 705 -597 98 -116 212 -270 282
-383 53 -84 191 -349 221 -423 33 -81 81 -216 97 -270 10 -33 22 -71 27 -85 5
-14 14 -47 20 -75 73 -340 84 -438 84 -735 0 -297 -11 -395 -84 -735 -6 -27
-15 -61 -20 -75 -5 -14 -17 -52 -27 -85 -16 -54 -64 -189 -97 -270 -30 -73
-168 -339 -220 -422 -127 -203 -309 -426 -485 -594 -128 -122 -334 -282 -482
-374 -86 -53 -350 -191 -425 -222 -126 -51 -238 -89 -360 -123 -44 -12 -96
-26 -115 -31 -19 -6 -57 -14 -85 -19 -305 -52 -337 -55 -605 -55 -297 0 -395
11 -735 84 -27 6 -61 15 -75 20 -14 5 -59 20 -100 32 -41 12 -82 26 -90 30 -8
4 -37 15 -65 24 -65 23 -94 36 -245 107 -501 240 -938 632 -1245 1118 -36 58
-98 170 -138 251 -77 155 -82 167 -123 274 -23 61 -38 106 -84 251 -24 74 -64
277 -92 469 -17 120 -17 569 0 690 28 194 65 380 92 470 43 138 87 263 119
340 46 107 152 313 211 410 326 534 808 951 1385 1202 96 42 131 55 230 88
123 40 187 58 290 80 44 9 96 21 115 26 34 8 147 24 285 38 103 12 417 12 520
1z" fill="#000000" stroke="none"/>
<path d="M2954 6012 c-73 -24 -136 -67 -177 -121 -61 -82 -72 -115 -72 -227 0
-91 3 -106 29 -158 16 -32 60 -90 98 -128 37 -39 68 -79 68 -88 0 -9 -31 -49
-68 -88 -38 -38 -82 -96 -98 -128 -26 -52 -29 -67 -29 -158 0 -83 4 -109 21
-146 49 -102 132 -174 236 -204 71 -20 125 -20 196 0 71 21 141 66 212 138 30
31 59 56 65 56 6 0 35 -25 65 -56 71 -72 141 -117 212 -138 71 -20 125 -20
196 0 104 30 187 102 236 204 17 37 21 63 21 146 0 91 -3 106 -29 157 -15 31
-59 89 -97 129 -38 40 -69 80 -69 89 0 9 31 48 68 87 38 38 82 96 98 128 26
52 29 67 29 158 0 83 -4 109 -21 146 -49 102 -132 174 -236 204 -71 20 -125
20 -196 0 -71 -21 -141 -66 -212 -138 -30 -31 -59 -56 -65 -56 -6 0 -35 25
-65 56 -71 72 -141 117 -212 138 -69 20 -137 19 -204 -2z" fill="#000000" stroke="none"/>
<path d="M5204 6012 c-73 -24 -136 -67 -177 -121 -61 -82 -72 -115 -72 -227 0
-91 3 -106 29 -158 16 -32 60 -90 98 -128 37 -39 68 -79 68 -88 0 -9 -31 -49
-68 -88 -38 -38 -82 -96 -98 -128 -26 -52 -29 -67 -29 -158 0 -83 4 -109 21
-146 49 -102 132 -174 236 -204 71 -20 125 -20 196 0 71 21 141 66 212 138 30
31 59 56 65 56 6 0 35 -25 65 -56 71 -72 141 -117 212 -138 71 -20 125 -20
196 0 104 30 187 102 236 204 17 37 21 63 21 146 0 91 -3 106 -29 157 -15 31
-59 89 -97 129 -38 40 -69 80 -69 89 0 9 31 48 68 87 38 38 82 96 98 128 26
52 29 67 29 158 0 83 -4 109 -21 146 -49 102 -132 174 -236 204 -71 20 -125
20 -196 0 -71 -21 -141 -66 -212 -138 -30 -31 -59 -56 -65 -56 -6 0 -35 25
-65 56 -71 72 -141 117 -212 138 -69 20 -137 19 -204 -2z" fill="#000000" stroke="none"/>
<path d="M3515 3761 c-71 -24 -105 -44 -146 -88 -59 -61 -88 -117 -101 -192
-9 -54 -9 -84 1 -136 6 -37 23 -85 38 -108 14 -23 51 -68 82 -100 63 -66 215
-184 306 -239 64 -39 224 -118 238 -118 5 0 23 -6 40 -14 72 -32 156 -54 312
-84 111 -21 423 -23 535 -4 122 21 264 59 347 93 78 33 204 95 258 127 152 90
321 236 381 328 46 71 62 161 46 255 -13 75 -42 131 -101 192 -42 45 -76 65
-151 89 -131 42 -254 8 -379 -106 -119 -108 -230 -176 -351 -216 -135 -44
-144 -45 -310 -45 -166 0 -176 2 -310 46 -51 16 -148 62 -195 91 -35 23 -109
81 -156 124 -25 23 -63 53 -85 66 -92 58 -201 72 -299 39z" fill="#000000" stroke="none"/>
</g>
</svg>
