<?xml version="1.0" standalone="no"?>
<svg version="1.0" xmlns="http://www.w3.org/2000/svg"
 width="910.000000pt" height="910.000000pt"
 viewBox="0 0 910.000000 910.000000"
 preserveAspectRatio="xMidYMid meet">
<g transform="translate(0.000000,910.000000) scale(0.100000,-0.100000)">
<path d="M4310 8271 c-14 -4 -75 -11 -135 -15 -92 -6 -271 -31 -358 -51 -89
-19 -209 -49 -247 -60 -25 -7 -72 -21 -105 -30 -33 -9 -74 -23 -92 -31 -17 -8
-38 -14 -47 -14 -8 0 -32 -7 -53 -16 -21 -9 -47 -20 -58 -25 -198 -80 -394
-172 -485 -227 -19 -12 -55 -33 -80 -47 -54 -30 -159 -99 -267 -175 -146 -102
-338 -267 -489 -421 -153 -157 -260 -283 -375 -444 -70 -98 -189 -280 -189
-289 0 -4 -12 -25 -27 -49 -41 -66 -135 -259 -198 -406 -31 -74 -60 -142 -65
-150 -13 -28 -31 -84 -45 -141 -7 -30 -21 -80 -30 -110 -30 -100 -64 -248 -91
-400 -64 -363 -64 -883 0 -1260 9 -47 17 -94 20 -105 3 -11 14 -65 26 -120 12
-55 25 -111 30 -125 5 -14 18 -59 30 -100 26 -90 48 -154 66 -197 8 -17 14
-36 14 -42 0 -6 4 -19 10 -29 5 -9 28 -62 51 -117 37 -91 151 -326 169 -350 4
-5 20 -32 35 -60 78 -143 223 -349 368 -524 125 -150 362 -385 502 -497 183
-147 333 -249 525 -357 172 -97 260 -140 413 -202 34 -14 69 -29 77 -34 9 -5
30 -12 48 -15 17 -4 34 -12 37 -17 4 -5 15 -9 27 -9 11 0 34 -6 51 -14 32 -15
64 -25 162 -51 405 -107 638 -139 1025 -139 238 0 397 11 570 39 138 23 323
61 405 85 166 46 249 73 302 96 17 8 35 14 41 14 9 0 88 33 212 87 63 28 250
122 265 133 6 4 42 24 80 45 39 20 77 44 86 51 8 8 18 14 22 14 9 0 162 106
271 189 148 111 286 233 422 372 141 145 228 248 350 416 99 135 166 238 214
328 18 33 36 65 40 70 18 24 122 238 159 330 23 55 45 107 50 115 5 9 12 30
15 48 4 17 12 34 17 37 5 4 9 15 9 27 0 11 6 34 14 51 8 18 22 59 31 92 10 33
23 80 30 105 50 177 95 419 117 635 18 178 15 560 -5 745 -26 236 -69 462
-123 640 -9 30 -22 80 -29 110 -15 62 -32 117 -45 141 -4 8 -34 76 -65 150
-51 121 -156 339 -175 364 -4 6 -24 42 -45 80 -20 39 -44 77 -51 86 -8 8 -14
18 -14 22 0 16 -162 242 -274 382 -104 130 -403 430 -531 532 -322 257 -566
401 -964 571 -40 18 -78 32 -83 32 -6 0 -24 6 -41 14 -43 18 -107 40 -197 66
-41 12 -86 25 -100 30 -23 7 -53 15 -215 51 -90 20 -227 40 -375 56 -158 17
-600 27 -640 14z m-122 -763 c9 -9 12 -122 12 -448 0 -355 -3 -439 -14 -455
-14 -21 -73 -64 -571 -424 -340 -246 -552 -400 -725 -526 -69 -51 -135 -97
-148 -104 -16 -8 -32 -9 -55 -2 -38 11 -259 96 -302 115 -16 8 -50 21 -75 29
-40 14 -84 31 -145 56 -30 13 -88 35 -197 77 -54 21 -98 42 -98 48 0 42 156
301 279 465 319 426 736 755 1226 968 96 42 131 55 230 88 146 48 231 70 410
105 33 7 65 14 70 15 26 8 92 4 103 -7z m922 -7 c25 -5 79 -17 120 -26 149
-32 370 -103 485 -155 11 -5 43 -19 70 -30 95 -41 228 -112 344 -182 245 -150
533 -394 705 -597 151 -178 292 -384 378 -550 21 -41 38 -79 38 -86 0 -6 -44
-28 -97 -49 -54 -21 -112 -44 -130 -52 -17 -8 -37 -14 -45 -14 -8 0 -18 -4
-23 -8 -6 -4 -37 -18 -70 -31 -33 -13 -74 -29 -92 -37 -17 -8 -37 -14 -45 -14
-8 0 -18 -4 -24 -8 -5 -4 -34 -17 -64 -29 -269 -102 -254 -97 -280 -83 -11 6
-82 56 -158 111 -75 55 -204 148 -285 207 -81 59 -219 159 -306 222 -87 63
-217 158 -290 210 -298 215 -387 282 -403 301 -17 20 -18 57 -18 458 0 336 3
440 13 450 8 9 30 11 72 8 33 -3 80 -10 105 -16z m-378 -1661 c84 -61 196
-142 248 -180 126 -91 407 -295 550 -400 63 -46 175 -126 248 -178 92 -67 132
-101 132 -115 0 -11 -17 -72 -38 -136 -21 -64 -53 -163 -71 -221 -19 -58 -46
-143 -61 -190 -15 -47 -44 -139 -65 -205 -20 -66 -47 -151 -60 -190 -12 -38
-44 -137 -70 -220 -26 -82 -60 -188 -75 -235 -15 -47 -30 -97 -34 -112 -14
-62 43 -58 -876 -58 -919 0 -862 -4 -876 58 -4 15 -21 72 -39 127 -18 55 -45
141 -60 190 -15 50 -31 99 -35 110 -8 19 -23 68 -105 330 -21 66 -50 158 -65
205 -15 47 -42 132 -61 190 -18 58 -50 157 -71 221 -21 64 -38 125 -38 136 0
14 40 48 133 114 72 53 184 133 247 179 209 153 433 315 565 410 72 52 190
138 264 192 74 54 140 97 147 94 7 -3 81 -55 166 -116z m-3064 -679 c18 -10
44 -20 192 -76 52 -20 104 -40 115 -45 11 -5 63 -25 115 -45 52 -19 102 -39
110 -44 9 -5 30 -12 48 -15 17 -4 34 -12 37 -17 4 -5 13 -9 21 -9 16 0 84 -28
143 -58 31 -15 37 -26 68 -122 45 -139 83 -259 128 -405 21 -66 50 -158 65
-205 39 -119 80 -251 135 -425 26 -82 58 -181 70 -220 13 -38 40 -124 60 -190
20 -66 41 -130 46 -143 5 -13 9 -31 9 -41 0 -10 -24 -44 -53 -77 -29 -32 -97
-111 -152 -174 -54 -63 -102 -117 -105 -120 -3 -3 -30 -34 -60 -70 -30 -36
-88 -103 -129 -150 -41 -47 -75 -87 -77 -88 -17 -23 -155 120 -300 313 -115
154 -203 296 -287 466 -77 155 -82 167 -123 274 -23 61 -38 106 -84 251 -24
74 -64 277 -92 469 -17 121 -17 570 0 690 43 293 47 303 100 276z m5838 -18
c3 -16 10 -41 15 -58 9 -33 23 -139 40 -310 12 -125 6 -486 -10 -585 -6 -36
-15 -94 -21 -130 -16 -106 -56 -293 -69 -330 -5 -14 -17 -52 -27 -85 -16 -54
-64 -189 -97 -270 -30 -74 -168 -339 -222 -425 -75 -120 -209 -298 -317 -420
-58 -66 -91 -96 -108 -97 -21 -2 -66 47 -305 335 -236 284 -280 342 -279 368
0 25 58 225 84 289 4 11 20 61 35 110 15 50 42 137 61 195 18 58 48 150 65
205 17 55 44 138 59 185 15 47 44 139 65 205 81 261 97 311 105 330 4 11 19
56 32 100 28 92 26 90 188 151 52 19 104 39 115 44 11 5 63 25 115 45 52 20
104 40 115 46 39 18 260 101 283 106 12 3 25 9 28 14 3 5 14 9 24 9 13 0 22
-9 26 -27z m-1987 -2480 c12 -10 147 -169 300 -353 255 -305 278 -337 267
-355 -7 -11 -85 -56 -172 -100 -167 -84 -176 -88 -289 -131 -90 -34 -160 -57
-260 -84 -44 -12 -96 -26 -115 -31 -19 -6 -57 -14 -85 -19 -305 -52 -337 -55
-605 -55 -297 0 -395 11 -735 84 -27 6 -61 15 -75 20 -14 5 -59 19 -100 32
-41 12 -79 24 -85 27 -5 4 -37 16 -71 28 -85 29 -148 58 -307 138 -76 38 -142
78 -148 88 -9 16 0 31 53 91 35 40 68 77 73 83 6 6 62 71 125 144 246 286 344
395 359 402 9 4 428 7 932 7 859 1 918 0 938 -16z" fill="#000000" stroke="none"/>
</g>
</svg>
