<?xml version="1.0" encoding="UTF-8" standalone="no"?>
<!DOCTYPE svg PUBLIC "-//W3C//DTD SVG 20010904//EN" "http://www.w3.org/TR/2001/REC-SVG-20010904/DTD/svg10.dtd">

<svg xmlns="http://www.w3.org/2000/svg" width="9.27778in" height="8.34444in" viewBox="0 0 835 751">
  <path id="Selection" fill="currentColor" stroke="black" stroke-width="1" d="M 419.00,64.00
           C 425.40,55.47 445.33,42.37 455.00,36.60
             488.24,16.78 525.39,4.73 564.00,1.91
             564.00,1.91 576.00,1.00 576.00,1.00
             576.00,1.00 593.00,1.00 593.00,1.00
             616.69,1.04 648.74,7.89 671.00,16.05
             744.76,43.09 800.67,102.02 823.98,177.00
             832.73,205.18 835.34,231.67 835.00,261.00
             835.00,261.00 834.09,271.00 834.09,271.00
             830.75,318.82 813.32,364.67 784.53,403.00
             772.86,418.53 759.02,432.55 745.00,445.96
             745.00,445.96 735.00,455.01 735.00,455.01
             735.00,455.01 669.00,521.00 669.00,521.00
             669.00,521.00 641.00,548.96 641.00,548.96
             641.00,548.96 631.00,558.01 631.00,558.01
             631.00,558.01 540.00,649.00 540.00,649.00
             540.00,649.00 528.00,660.04 528.00,660.04
             528.00,660.04 495.00,693.00 495.00,693.00
             495.00,693.00 464.00,724.00 464.00,724.00
             454.46,733.54 444.31,745.60 431.00,749.56
             425.22,751.28 420.91,751.07 415.00,751.00
             397.88,750.80 388.28,740.28 377.00,729.00
             377.00,729.00 360.00,712.00 360.00,712.00
             360.00,712.00 246.00,599.00 246.00,599.00
             246.00,599.00 204.00,557.04 204.00,557.04
             204.00,557.04 194.00,547.99 194.00,547.99
             194.00,547.99 121.00,475.00 121.00,475.00
             121.00,475.00 99.00,453.04 99.00,453.04
             82.58,437.33 66.14,422.11 52.23,404.00
             20.27,362.36 4.47,316.97 0.91,265.00
             0.91,265.00 0.00,253.00 0.00,253.00
             0.00,253.00 0.00,247.00 0.00,247.00
             0.00,247.00 1.04,237.00 1.04,237.00
             1.04,237.00 1.04,228.00 1.04,228.00
             3.79,200.46 10.67,173.32 21.86,148.00
             52.81,77.98 114.84,26.17 189.00,7.63
             203.36,4.04 226.34,0.18 241.00,0.00
             287.97,-0.55 329.36,7.79 371.00,30.31
             390.47,40.84 402.08,50.16 419.00,64.00 Z
           M 245.00,84.28
           C 245.00,84.28 217.00,87.80 217.00,87.80
             199.76,91.19 177.70,99.80 163.00,109.34
             142.56,122.62 128.82,134.92 114.72,155.00
             75.86,210.37 74.60,285.55 112.00,342.00
             124.22,360.44 134.66,369.66 150.00,385.00
             150.00,385.00 206.00,440.00 206.00,440.00
             206.00,440.00 283.00,516.96 283.00,516.96
             283.00,516.96 292.00,525.04 292.00,525.04
             292.00,525.04 384.00,617.00 384.00,617.00
             384.00,617.00 408.00,640.00 408.00,640.00
             410.09,642.09 415.04,647.80 418.00,647.80
             420.84,647.80 425.04,642.95 427.00,641.00
             427.00,641.00 449.00,619.99 449.00,619.99
             449.00,619.99 536.00,533.00 536.00,533.00
             536.00,533.00 552.00,517.96 552.00,517.96
             552.00,517.96 584.00,486.00 584.00,486.00
             584.00,486.00 648.00,422.04 648.00,422.04
             648.00,422.04 657.00,413.96 657.00,413.96
             657.00,413.96 686.00,385.00 686.00,385.00
             706.27,364.73 716.01,356.47 730.57,331.00
             735.82,321.83 741.07,308.21 744.00,298.00
             758.55,247.33 749.03,193.24 717.10,151.00
             665.53,82.78 570.79,65.55 498.00,109.45
             484.02,117.88 472.19,128.06 461.09,140.00
             448.39,153.65 441.75,167.74 420.00,168.00
             396.24,168.27 390.80,158.28 376.71,142.00
             370.85,135.22 363.92,128.31 357.00,122.61
             329.36,99.87 297.59,87.40 262.00,84.91
             254.70,84.40 253.06,83.53 245.00,84.28 Z" />
</svg>