<svg xmlns="http://www.w3.org/2000/svg" version="1.0" width="300.000000pt" height="300.000000pt"
    viewBox="0 0 300.000000 300.000000" preserveAspectRatio="xMidYMid meet">
    <metadata>
        Created by potrace 1.16, written by Peter Selinger 2001-2019
    </metadata>
    <g transform="translate(0.000000,300.000000) scale(0.100000,-0.100000)" fill="#000000" stroke="none">
        <path
            d="M1275 2730 c-128 -21 -232 -76 -331 -174 -79 -80 -122 -148 -155 -251 -19 -58 -23 -92 -23 -195 0 -142 14 -213 90 -433 58 -169 67 -198 60 -204 -3 -3 -42 0 -86 8 -212 34 -420 -73 -515 -263 -147 -298 33 -645 363 -700 144 -24 310 31 417 137 65 65 121 175 136 265 20 119 -8 359 -62 543 -11 38 -18 71 -15 74 2 3 48 -3 101 -12 113 -21 193 -16 302 16 40 12 76 19 79 16 7 -7 3 -25 -45 -187 -112 -378 -106 -634 21 -833 45 -70 156 -168 234 -206 109 -53 158 -64 279 -65 179 0 303 51 431 178 108 109 164 224 179 373 9 88 -9 133 -62 158 -46 22 -91 13 -127 -24 -23 -24 -30 -43 -36 -98 -19 -165 -107 -282 -258 -340 -182 -70 -397 24 -484 212 -20 45 -23 64 -22 190 1 174 30 311 124 585 29 86 76 259 89 325 46 254 41 390 -22 542 -65 157 -207 287 -375 342 -72 23 -213 34 -287 21z m218 -239 c107 -37 192 -114 238 -216 19 -42 23 -66 22 -152 -1 -88 -5 -109 -29 -160 -35 -74 -112 -151 -189 -188 -54 -27 -70 -30 -160 -29 -82 0 -109 4 -150 23 -142 64 -235 207 -235 362 0 157 110 308 265 361 69 23 169 23 238 -1z m-633 -1256 c159 -80 198 -287 77 -413 -54 -57 -102 -77 -187 -77 -85 0 -133 20 -187 77 -135 141 -73 367 117 429 38 13 142 4 180 -16z" />
    </g>
</svg>