<?xml version="1.0" standalone="no"?>
<svg version="1.0" xmlns="http://www.w3.org/2000/svg"
 width="760.000000pt" height="874.000000pt"
 viewBox="0 0 760.000000 874.000000"
 preserveAspectRatio="xMidYMid meet">
<g transform="translate(0.000000,874.000000) scale(0.100000,-0.100000)">
<path d="M3570 7911 c-14 -4 -65 -11 -115 -15 -111 -9 -289 -41 -410 -76 -120
-34 -183 -53 -200 -60 -11 -5 -49 -19 -84 -31 -35 -12 -75 -28 -90 -35 -14 -8
-30 -14 -34 -14 -15 0 -281 -135 -355 -180 -40 -25 -81 -49 -90 -55 -36 -21
-161 -112 -252 -184 -52 -41 -165 -144 -250 -230 -300 -300 -510 -623 -663
-1016 -99 -255 -147 -452 -184 -750 -21 -169 -23 -492 -5 -650 19 -163 51
-343 82 -450 52 -187 79 -262 143 -415 56 -134 108 -236 194 -379 130 -215
304 -433 487 -610 42 -41 76 -81 74 -89 -3 -12 -48 -14 -309 -13 -176 1 -334
-3 -375 -9 -113 -17 -188 -64 -249 -155 -20 -31 -39 -71 -42 -90 -3 -20 -10
-38 -14 -41 -5 -3 -9 -31 -9 -62 0 -67 35 -176 74 -226 35 -46 101 -98 156
-122 43 -18 77 -19 1080 -19 1035 0 1035 0 1095 33 33 19 74 47 92 64 17 17
47 58 65 92 33 61 33 61 33 222 0 161 0 161 -35 229 -49 95 -117 148 -245 190
-187 61 -363 142 -512 235 -282 177 -527 417 -706 691 -56 86 -141 244 -189
354 -68 157 -123 354 -160 580 -17 107 -17 493 0 600 29 178 53 277 104 430
34 102 42 121 109 262 155 324 381 596 694 835 91 69 235 154 382 225 72 34
135 63 140 63 4 0 37 11 73 24 120 44 245 76 425 106 105 18 404 24 520 11
178 -20 228 -29 350 -61 357 -92 678 -265 960 -516 117 -104 270 -283 366
-428 68 -102 157 -268 212 -396 19 -43 70 -196 90 -270 17 -62 40 -171 57
-275 18 -106 24 -395 11 -510 -17 -150 -27 -217 -41 -276 -29 -124 -78 -289
-92 -304 -4 -5 -8 -15 -8 -22 0 -40 -141 -317 -228 -448 -90 -135 -242 -315
-347 -411 -106 -95 -240 -197 -356 -269 -94 -58 -328 -175 -351 -175 -8 0 -18
-4 -24 -9 -5 -4 -45 -20 -89 -34 -115 -37 -146 -51 -201 -95 -34 -27 -60 -60
-84 -107 -35 -68 -35 -68 -35 -229 0 -161 0 -161 33 -222 18 -34 48 -75 65
-92 18 -17 59 -45 92 -64 60 -33 60 -33 1095 -33 1003 0 1037 1 1080 19 55 24
121 76 156 122 39 50 74 159 74 226 0 31 -4 59 -9 62 -4 3 -11 21 -14 41 -3
19 -22 59 -42 90 -61 91 -136 138 -249 155 -41 6 -199 10 -375 9 -277 -1 -306
0 -306 15 0 9 54 72 121 139 66 67 150 158 185 202 199 244 357 511 474 800
19 48 35 92 35 97 0 6 6 24 14 41 12 28 32 91 66 212 31 109 63 288 82 460 16
136 15 464 0 605 -13 116 -38 276 -52 330 -5 19 -16 64 -25 100 -61 257 -167
517 -324 794 -32 57 -137 212 -189 281 -182 239 -424 473 -668 645 -43 30
-123 82 -178 115 -186 112 -450 232 -618 281 -27 8 -72 21 -100 30 -132 39
-284 69 -453 91 -140 17 -563 27 -605 14z" fill="#000000" stroke="none"/>
<path d="M1070 1511 c-25 -9 -58 -24 -75 -33 -34 -18 -92 -78 -119 -121 -28
-46 -55 -138 -56 -190 0 -60 32 -157 71 -214 37 -53 110 -109 164 -125 22 -6
44 -15 50 -20 12 -11 5398 -11 5410 0 6 5 28 14 50 20 54 16 127 72 164 125
39 57 71 154 71 214 -1 52 -28 144 -56 190 -27 43 -75 93 -114 117 -19 13 -58
30 -87 39 -48 16 -251 17 -2740 16 -2457 -1 -2692 -3 -2733 -18z" fill="#000000" stroke="none"/>
</g>
</svg>
