<?xml version="1.0" standalone="no"?>
<svg version="1.0" xmlns="http://www.w3.org/2000/svg"
 width="760.000000pt" height="910.000000pt"
 viewBox="0 0 760.000000 910.000000"
 preserveAspectRatio="xMidYMid meet">
<g transform="translate(0.000000,910.000000) scale(0.100000,-0.100000)">
<path d="M1105 8270 c-3 -5 -14 -10 -23 -10 -29 0 -119 -51 -155 -89 -39 -40
-87 -124 -87 -152 0 -10 -4 -21 -10 -24 -12 -8 -13 -152 -1 -159 4 -3 11 -18
14 -34 3 -15 20 -59 37 -97 18 -39 42 -92 55 -120 12 -27 39 -90 60 -140 21
-49 43 -103 50 -120 7 -16 34 -88 60 -160 26 -71 53 -143 60 -160 6 -16 20
-57 30 -90 10 -33 21 -69 26 -80 9 -24 60 -196 94 -320 9 -33 23 -82 31 -109
7 -26 14 -57 14 -67 0 -10 4 -28 9 -41 5 -13 19 -68 31 -123 12 -55 26 -118
31 -140 6 -22 14 -65 19 -95 5 -30 15 -93 23 -140 8 -47 20 -121 26 -165 6
-44 16 -109 22 -145 5 -36 14 -112 19 -170 28 -318 31 -374 21 -396 -10 -22
-13 -22 -248 -26 -218 -4 -241 -6 -278 -25 -99 -52 -167 -131 -198 -230 -54
-167 28 -347 198 -436 37 -19 60 -21 278 -25 235 -4 238 -4 248 -26 10 -22 7
-78 -21 -396 -5 -58 -14 -134 -19 -170 -6 -36 -17 -114 -26 -175 -9 -60 -21
-135 -27 -165 -5 -30 -16 -89 -24 -130 -16 -87 -37 -187 -59 -280 -9 -36 -20
-85 -26 -109 -5 -25 -13 -59 -19 -75 -5 -17 -16 -56 -24 -86 -28 -102 -58
-204 -81 -275 -12 -38 -33 -104 -45 -145 -13 -41 -27 -82 -31 -90 -4 -8 -15
-37 -24 -65 -48 -138 -151 -393 -214 -530 -21 -44 -48 -107 -60 -140 -13 -33
-27 -68 -32 -77 -12 -24 -11 -155 1 -163 6 -3 10 -14 10 -24 0 -28 48 -112 87
-152 36 -38 126 -89 155 -89 9 0 20 -4 23 -10 3 -5 39 -10 80 -10 41 0 77 5
80 10 3 6 14 10 24 10 28 0 112 48 153 88 44 42 103 159 224 442 9 19 19 44
24 55 5 11 25 63 45 115 19 52 40 103 45 112 6 10 10 23 10 29 0 6 6 25 14 42
14 31 122 352 146 432 6 22 18 63 26 90 26 86 69 247 90 335 9 36 22 92 30
125 14 56 24 106 60 280 50 251 94 566 119 855 8 91 17 201 21 245 4 44 11 88
16 98 8 16 90 17 1498 17 1408 0 1490 -1 1498 -17 5 -10 12 -54 16 -98 23
-296 36 -434 41 -460 3 -16 10 -68 15 -115 20 -180 55 -386 114 -675 27 -133
75 -328 119 -485 9 -30 21 -73 27 -95 6 -22 15 -51 20 -65 4 -14 25 -79 45
-145 20 -66 41 -129 46 -140 4 -11 18 -49 30 -85 11 -36 27 -79 35 -97 8 -17
14 -36 14 -42 0 -6 7 -27 16 -48 26 -60 32 -74 54 -133 11 -30 25 -64 30 -75
5 -11 18 -42 30 -70 12 -27 25 -59 30 -70 5 -11 19 -42 31 -70 61 -142 122
-254 156 -287 42 -40 126 -88 154 -88 10 0 21 -4 24 -10 8 -13 152 -13 160 0
3 6 14 10 24 10 28 0 112 48 152 87 38 36 89 126 89 155 0 9 4 20 10 23 12 8
13 152 1 159 -4 3 -11 18 -14 34 -3 15 -20 59 -37 97 -18 39 -42 93 -55 120
-12 28 -39 91 -60 140 -21 50 -43 104 -50 120 -7 17 -34 89 -60 160 -26 72
-51 139 -56 150 -11 26 -61 181 -89 275 -12 41 -26 86 -31 100 -15 39 -99 369
-123 485 -10 44 -22 98 -27 120 -6 22 -14 65 -19 95 -5 30 -15 93 -23 140 -8
47 -20 121 -26 165 -6 44 -16 109 -22 145 -5 36 -14 112 -19 170 -30 341 -32
372 -22 395 11 23 11 23 249 27 238 4 238 4 290 32 29 16 71 47 95 71 46 45
88 118 88 153 0 11 5 24 10 27 16 10 12 121 -7 178 -31 99 -100 178 -198 230
-37 19 -60 21 -275 25 -156 2 -240 8 -249 15 -11 9 -12 34 -7 117 6 105 16
207 37 375 5 50 15 126 20 170 5 44 13 103 19 130 5 28 16 93 25 145 9 52 22
124 29 160 38 175 51 232 73 320 14 52 28 111 33 130 11 50 38 151 49 180 4
14 15 50 24 80 23 79 86 272 96 295 5 11 30 79 56 150 26 72 53 144 60 160 7
17 29 71 50 120 21 50 48 113 60 140 13 28 37 81 55 120 17 38 34 82 37 97 3
16 10 31 14 34 12 7 11 151 -1 159 -5 3 -10 14 -10 23 0 29 -51 119 -89 155
-40 39 -124 87 -152 87 -10 0 -21 5 -24 10 -3 6 -39 10 -80 10 -41 0 -77 -4
-80 -10 -3 -5 -14 -10 -24 -10 -28 0 -112 -48 -154 -88 -35 -34 -96 -147 -157
-287 -11 -27 -25 -59 -30 -70 -5 -11 -18 -42 -30 -70 -12 -27 -25 -59 -30 -70
-5 -11 -19 -45 -30 -75 -22 -59 -28 -73 -54 -133 -9 -21 -16 -42 -16 -47 0 -5
-5 -21 -12 -37 -19 -48 -68 -186 -79 -223 -6 -19 -13 -42 -16 -50 -17 -40
-103 -330 -140 -470 -94 -357 -170 -750 -203 -1050 -5 -47 -12 -98 -15 -115
-5 -26 -18 -164 -41 -460 -4 -44 -11 -88 -16 -97 -8 -17 -90 -18 -1497 -18
-1179 0 -1491 3 -1498 13 -6 6 -13 48 -17 92 -17 224 -38 442 -50 545 -18 144
-45 330 -51 350 -3 8 -9 44 -15 80 -5 36 -16 97 -24 135 -8 39 -21 104 -30
145 -8 41 -17 84 -20 95 -3 11 -15 61 -26 110 -12 50 -27 113 -35 140 -38 145
-74 271 -85 305 -4 14 -25 79 -45 145 -21 66 -41 129 -46 140 -5 11 -18 49
-30 85 -11 36 -27 79 -35 97 -8 17 -14 34 -14 38 0 7 -82 221 -100 260 -5 11
-18 43 -30 70 -12 28 -25 59 -30 70 -5 11 -19 43 -31 70 -61 142 -122 254
-156 287 -42 40 -126 88 -154 88 -10 0 -21 5 -24 10 -3 6 -39 10 -80 10 -41 0
-77 -4 -80 -10z" fill="#000000" stroke="none"/>
</g>
</svg>
