<?xml version="1.0" encoding="UTF-8" standalone="no"?>
<!DOCTYPE svg PUBLIC "-//W3C//DTD SVG 20010904//EN" "http://www.w3.org/TR/2001/REC-SVG-20010904/DTD/svg10.dtd">

<svg xmlns="http://www.w3.org/2000/svg" width="7.73333in" height="10.1556in" viewBox="0 0 696 914">
    <path id="Selection #1" fill="currentColor" stroke="black" stroke-width="1" d="M 304.00,87.00
           C 304.00,87.00 304.00,59.00 304.00,59.00
             304.00,40.90 302.60,26.04 317.04,12.09
             334.11,-4.40 363.37,-4.07 379.91,13.04
             388.64,22.08 391.98,32.68 392.00,45.00
             392.00,45.00 392.00,87.00 392.00,87.00
             392.00,87.00 482.00,87.00 482.00,87.00
             499.62,87.00 525.35,86.01 542.00,88.43
             575.38,93.27 607.02,111.74 626.99,139.00
             633.87,148.39 639.50,158.16 643.80,169.00
             648.80,181.64 652.84,199.40 653.00,213.00
             653.00,213.00 653.00,395.00 653.00,395.00
             652.98,404.75 651.25,415.54 648.87,425.00
             634.19,483.49 581.90,523.00 522.00,523.00
             522.00,523.00 522.00,532.00 522.00,532.00
             522.16,540.45 527.04,540.77 534.00,544.25
             534.00,544.25 568.00,561.25 568.00,561.25
             568.00,561.25 647.00,600.75 647.00,600.75
             667.12,610.82 689.07,617.59 695.24,642.00
             696.29,646.15 696.05,652.57 696.00,657.00
             695.92,663.66 693.81,670.29 690.37,676.00
             687.87,680.14 684.62,683.64 681.00,686.82
             669.16,697.20 651.60,699.47 637.00,694.30
             637.00,694.30 616.00,684.25 616.00,684.25
             616.00,684.25 588.00,670.25 588.00,670.25
             588.00,670.25 546.00,649.25 546.00,649.25
             546.00,649.25 522.00,637.00 522.00,637.00
             522.00,637.00 522.00,795.00 522.00,795.00
             522.00,795.00 522.00,874.00 522.00,874.00
             521.75,895.17 503.17,913.75 482.00,914.00
             475.38,914.07 470.42,914.35 464.00,912.25
             446.09,906.39 435.03,890.62 435.00,872.00
             435.00,872.00 435.00,784.00 435.00,784.00
             435.00,784.00 261.00,784.00 261.00,784.00
             261.00,784.00 261.00,855.00 261.00,855.00
             261.00,870.90 263.13,883.24 253.07,897.00
             242.80,911.06 230.36,914.19 214.00,914.00
             191.17,913.73 174.03,894.31 174.00,872.00
             174.00,872.00 174.00,637.00 174.00,637.00
             174.00,637.00 150.00,649.25 150.00,649.25
             150.00,649.25 108.00,670.25 108.00,670.25
             108.00,670.25 80.00,684.25 80.00,684.25
             80.00,684.25 59.00,694.30 59.00,694.30
             44.40,699.47 26.84,697.20 15.00,686.82
             11.38,683.64 8.13,680.14 5.63,676.00
             2.19,670.29 0.08,663.66 0.00,657.00
             0.00,657.00 0.00,649.00 0.00,649.00
             0.35,620.56 27.83,611.34 49.00,600.75
             49.00,600.75 128.00,561.25 128.00,561.25
             128.00,561.25 160.00,545.25 160.00,545.25
             163.00,543.75 171.37,540.14 172.98,537.61
             174.55,535.15 174.00,526.26 174.00,523.00
             159.40,523.00 144.85,520.67 131.00,516.00
             119.31,512.05 106.90,505.72 97.00,498.37
             86.24,490.38 80.63,485.51 72.09,475.00
             58.58,458.36 49.19,438.08 45.26,417.00
             41.44,396.54 43.00,353.75 43.00,331.00
             43.00,331.00 43.00,214.00 43.00,214.00
             43.07,200.35 46.88,182.73 51.81,170.00
             55.79,159.73 62.27,147.77 68.90,139.00
             89.48,111.76 120.16,93.34 154.00,88.43
             170.65,86.01 196.38,87.00 214.00,87.00
             214.00,87.00 304.00,87.00 304.00,87.00 Z
           M 169.00,175.07
           C 145.27,179.23 131.04,195.99 131.00,220.00
             131.00,220.00 131.00,390.00 131.00,390.00
             131.04,416.67 149.33,434.96 176.00,435.00
             176.00,435.00 475.00,435.00 475.00,435.00
             475.00,435.00 506.00,435.00 506.00,435.00
             506.00,435.00 522.00,435.00 522.00,435.00
             540.24,434.78 556.83,423.56 562.64,406.00
             564.58,400.15 564.99,396.08 565.00,390.00
             565.00,390.00 565.00,220.00 565.00,220.00
             564.96,193.33 546.67,175.04 520.00,175.07
             520.00,175.07 288.00,175.07 288.00,175.07
             288.00,175.07 210.00,175.07 210.00,175.07
             210.00,175.07 169.00,175.07 169.00,175.07 Z
           M 435.00,523.00
           C 435.00,523.00 261.00,523.00 261.00,523.00
             261.00,523.00 261.00,696.00 261.00,696.00
             261.00,696.00 435.00,696.00 435.00,696.00
             435.00,696.00 435.00,523.00 435.00,523.00 Z
           M 254.00,261.44
           C 268.30,259.61 282.69,263.47 292.91,274.04
             313.28,295.12 307.52,331.47 281.00,344.73
             272.19,349.13 267.50,349.11 258.00,349.00
             225.29,348.61 207.83,311.52 221.98,284.00
             228.65,271.02 240.00,264.06 254.00,261.44 Z
           M 428.00,261.44
           C 442.30,259.61 456.69,263.47 466.91,274.04
             487.28,295.12 481.52,331.47 455.00,344.73
             446.19,349.13 441.50,349.11 432.00,349.00
             399.29,348.61 381.83,311.52 395.98,284.00
             402.65,271.02 414.00,264.06 428.00,261.44 Z" />
</svg>