<?xml version="1.0" standalone="no"?>
<svg version="1.0" xmlns="http://www.w3.org/2000/svg"
 width="835.000000pt" height="835.000000pt"
 viewBox="0 0 835.000000 835.000000"
 preserveAspectRatio="xMidYMid meet">
<g transform="translate(0.000000,835.000000) scale(0.100000,-0.100000)">
<path d="M4448 7511 c-70 -26 -132 -69 -171 -120 -61 -82 -72 -115 -72 -226 0
-82 4 -108 21 -145 49 -102 132 -174 236 -204 50 -14 153 -16 925 -16 672 0
872 -3 881 -12 10 -10 -326 -351 -1590 -1615 -882 -882 -1610 -1603 -1618
-1603 -8 0 -174 160 -370 355 -301 300 -364 358 -412 380 -100 46 -225 44
-326 -5 -50 -24 -123 -98 -150 -152 -50 -99 -53 -226 -6 -327 21 -47 81 -112
379 -411 195 -196 355 -362 355 -370 0 -8 -369 -384 -819 -835 -813 -813 -871
-876 -871 -936 0 -10 -4 -21 -10 -24 -13 -8 -13 -152 0 -160 5 -3 10 -14 10
-24 0 -28 48 -112 87 -152 36 -38 126 -89 155 -89 9 0 20 -4 23 -10 8 -13 152
-13 160 0 3 6 14 10 24 10 60 0 123 58 936 871 451 450 827 819 835 819 8 0
174 -160 370 -355 301 -300 364 -358 412 -380 100 -46 225 -44 326 5 50 24
123 98 150 152 50 99 53 226 6 327 -21 47 -81 112 -379 411 -195 196 -355 362
-355 370 0 8 721 736 1603 1618 1264 1264 1605 1600 1615 1590 9 -9 12 -209
12 -881 0 -772 2 -875 16 -925 30 -104 102 -187 204 -236 37 -17 63 -21 146
-21 91 0 106 3 156 28 31 16 76 48 100 71 46 46 88 119 88 154 0 11 4 24 10
27 7 4 10 478 10 1390 0 912 -3 1386 -10 1390 -5 3 -10 14 -10 23 0 29 -51
119 -89 155 -40 39 -124 87 -152 87 -10 0 -21 5 -24 10 -4 7 -476 10 -1388 9
-1261 -2 -1386 -3 -1429 -18z" fill="#000000" stroke="none"/>
</g>
</svg>
