<?xml version="1.0" standalone="no"?>
<svg version="1.0" xmlns="http://www.w3.org/2000/svg"
 width="910.000000pt" height="910.000000pt"
 viewBox="0 0 910.000000 910.000000"
 preserveAspectRatio="xMidYMid meet">
<g transform="translate(0.000000,910.000000) scale(0.100000,-0.100000)">
<path d="M1105 8271 c-3 -6 -14 -11 -23 -11 -29 0 -119 -51 -155 -89 -39 -40
-87 -124 -87 -152 0 -10 -4 -21 -10 -24 -5 -3 -10 -39 -10 -80 0 -41 5 -77 10
-80 6 -3 10 -14 10 -24 0 -25 46 -110 78 -145 34 -36 92 -73 146 -93 22 -8 82
-19 131 -23 67 -5 106 -15 149 -35 74 -35 155 -116 192 -192 29 -58 29 -58 34
-1833 4 -1453 8 -1782 19 -1815 30 -90 107 -174 201 -219 37 -17 63 -21 145
-21 82 0 108 4 145 21 94 45 171 129 201 219 11 33 15 362 19 1815 5 1775 5
1775 34 1833 36 75 118 157 193 193 52 26 68 29 158 29 90 0 106 -3 158 -29
75 -36 157 -118 193 -193 29 -58 29 -58 34 -1833 4 -1453 8 -1782 19 -1815 30
-90 107 -174 201 -219 37 -17 63 -21 145 -21 82 0 108 4 145 21 94 45 171 129
201 219 11 33 15 362 19 1815 5 1775 5 1775 34 1833 36 75 118 157 193 193 52
26 68 29 158 29 90 0 106 -3 158 -29 75 -36 157 -118 193 -193 29 -58 29 -58
35 -2068 5 -1802 7 -2018 22 -2090 22 -110 41 -185 55 -218 7 -16 12 -32 12
-36 0 -11 44 -110 86 -196 84 -168 259 -371 426 -492 120 -87 116 -85 233
-142 116 -57 212 -91 345 -122 91 -22 118 -23 680 -28 548 -6 585 -7 585 -23
0 -10 -113 -132 -251 -270 -302 -305 -309 -316 -309 -472 0 -112 11 -145 72
-227 40 -53 100 -94 176 -120 100 -35 214 -17 315 49 26 17 310 295 632 619
587 589 630 637 630 701 0 11 5 24 10 27 16 10 12 121 -7 178 -9 29 -31 75
-49 102 -41 62 -1174 1193 -1229 1227 -50 31 -140 58 -195 58 -23 0 -67 -7
-98 -16 -104 -30 -187 -102 -236 -204 -17 -37 -21 -63 -21 -146 0 -156 7 -167
310 -472 137 -139 251 -261 253 -272 3 -20 -4 -20 -487 -20 -583 0 -631 5
-791 77 -65 30 -144 85 -207 146 -98 94 -166 207 -210 347 -16 51 -17 208 -23
2070 -7 2206 -2 2060 -64 2241 -127 370 -452 651 -841 727 -102 20 -314 20
-420 0 -173 -32 -330 -104 -481 -219 -28 -22 -54 -39 -58 -39 -4 0 -44 26 -89
59 -146 105 -287 167 -452 199 -102 20 -314 20 -420 0 -173 -32 -330 -104
-481 -219 -28 -22 -54 -39 -58 -39 -4 0 -44 26 -89 59 -146 105 -289 168 -452
199 -103 19 -281 27 -290 13z" fill="#000000" stroke="none"/>
</g>
</svg>
