<?xml version="1.0" standalone="no"?>
<svg version="1.0" xmlns="http://www.w3.org/2000/svg"
 width="874.000000pt" height="835.000000pt"
 viewBox="0 0 874.000000 835.000000"
 preserveAspectRatio="xMidYMid meet">
<g transform="translate(0.000000,835.000000) scale(0.100000,-0.100000)">
<path d="M4810 7521 c-8 -4 -41 -11 -74 -15 -54 -6 -133 -26 -181 -46 -88 -37
-192 -91 -252 -132 -100 -69 -238 -215 -304 -323 -55 -89 -103 -199 -133 -305
-27 -97 -36 -194 -36 -402 -1 -222 -14 -451 -29 -501 -5 -18 -17 -59 -27 -92
-48 -162 -153 -333 -285 -465 -88 -88 -212 -177 -309 -223 -49 -22 -101 -41
-215 -77 -91 -29 -195 -33 -860 -39 -771 -7 -715 -2 -880 -82 -89 -44 -169
-107 -235 -187 -46 -55 -120 -185 -120 -213 0 -8 -4 -19 -9 -25 -5 -5 -15 -40
-22 -79 -11 -56 -14 -354 -17 -1440 -2 -1224 -1 -1379 13 -1455 19 -98 37
-152 78 -230 82 -154 241 -290 403 -343 117 -38 178 -42 624 -42 455 1 521 5
630 46 30 11 75 32 100 46 59 34 160 111 185 143 31 38 54 60 64 60 5 0 16 -6
23 -13 21 -20 137 -91 206 -126 84 -42 209 -88 302 -111 183 -45 170 -45 1695
-45 1533 0 1504 -1 1632 45 74 27 159 70 226 113 119 77 290 264 367 402 34
61 90 173 90 180 0 4 6 21 14 38 29 67 71 203 86 282 22 112 43 214 56 280 8
39 21 104 29 145 8 41 22 109 31 150 15 71 23 111 59 295 9 44 23 112 30 150
8 39 21 104 29 145 9 41 22 109 30 150 9 41 23 111 31 155 9 44 23 112 30 150
8 39 19 99 25 135 6 36 15 77 21 92 12 30 7 179 -10 273 -23 124 -76 272 -135
370 -36 60 -107 155 -156 208 -47 52 -201 168 -273 206 -79 41 -173 78 -265
103 -72 20 -108 22 -544 27 -290 4 -471 10 -477 16 -6 6 -11 309 -13 840 -3
770 -5 835 -22 900 -39 147 -96 277 -175 395 -83 126 -247 270 -401 352 -82
44 -201 85 -305 105 -91 18 -322 27 -345 14z m256 -741 c31 -10 81 -38 110
-60 53 -40 88 -85 129 -165 20 -39 20 -61 25 -1070 4 -627 10 -1040 16 -1055
35 -91 110 -176 195 -221 44 -24 44 -24 699 -29 501 -5 664 -9 695 -19 55 -18
134 -71 176 -118 39 -43 82 -127 94 -181 4 -21 0 -64 -10 -110 -9 -42 -23
-111 -32 -152 -8 -41 -21 -109 -30 -150 -8 -41 -21 -109 -30 -150 -8 -41 -21
-109 -30 -150 -8 -41 -21 -106 -28 -145 -8 -38 -21 -106 -30 -150 -9 -44 -23
-114 -32 -155 -8 -41 -21 -109 -30 -150 -8 -41 -21 -109 -30 -150 -8 -41 -21
-109 -29 -150 -9 -41 -22 -104 -30 -140 -8 -36 -14 -72 -14 -81 0 -33 -51
-177 -92 -258 -28 -56 -63 -105 -103 -145 -105 -107 66 -97 -1557 -94 -1178 3
-1429 5 -1458 17 -19 7 -66 25 -104 39 -79 29 -179 93 -249 161 -59 56 -126
149 -157 216 -12 28 -27 58 -32 68 -10 20 -23 80 -38 172 -10 64 -14 1962 -4
1989 3 8 38 24 77 36 180 53 251 78 353 126 298 138 573 375 757 652 75 114
172 309 212 427 78 232 103 435 104 845 1 178 4 212 21 259 22 60 37 85 82
137 95 108 267 153 404 104z m-2758 -2612 c9 -9 12 -316 12 -1319 0 -1182 -2
-1307 -16 -1313 -9 -3 -176 -6 -373 -6 -264 0 -360 3 -369 12 -9 9 -12 313
-12 1306 0 872 3 1300 10 1313 10 18 25 19 373 19 269 0 366 -3 375 -12z" fill="#000000" stroke="none"/>
</g>
</svg>
