<?xml version="1.0" standalone="no"?>
<svg version="1.0" xmlns="http://www.w3.org/2000/svg"
 width="853.000000pt" height="985.000000pt"
 viewBox="0 0 853.000000 985.000000"
 preserveAspectRatio="xMidYMid meet">
<g transform="translate(0.000000,985.000000) scale(0.100000,-0.100000)">
<path d="M4430 9021 c-8 -5 -41 -12 -72 -15 -87 -11 -227 -69 -323 -135 -86
-59 -150 -119 -211 -196 -32 -41 -63 -75 -69 -75 -6 0 -44 10 -85 22 -64 19
-99 22 -245 22 -134 0 -183 -4 -230 -17 -33 -10 -69 -22 -80 -27 -11 -5 -45
-19 -75 -31 -30 -12 -62 -28 -71 -36 -8 -7 -19 -13 -23 -13 -4 0 -43 -28 -87
-61 -107 -83 -199 -193 -253 -304 -54 -110 -70 -157 -90 -261 -14 -71 -16
-227 -16 -1263 0 -1017 -2 -1182 -14 -1187 -8 -3 -41 12 -73 33 -156 104 -292
152 -487 174 -84 9 -133 9 -220 0 -104 -11 -194 -30 -241 -51 -11 -5 -45 -19
-75 -31 -112 -46 -194 -103 -295 -204 -105 -105 -160 -187 -209 -308 -45 -112
-60 -199 -60 -342 1 -211 35 -327 161 -543 24 -40 43 -75 43 -77 0 -2 19 -37
43 -77 39 -65 110 -190 165 -289 28 -50 107 -189 164 -287 26 -45 48 -84 48
-86 0 -3 20 -39 45 -80 25 -42 45 -79 45 -81 0 -2 19 -37 43 -77 41 -68 112
-194 170 -298 14 -25 52 -91 86 -148 34 -57 61 -105 61 -107 0 -8 296 -497
348 -574 133 -198 287 -379 443 -517 116 -103 177 -151 279 -219 147 -97 298
-181 425 -235 107 -45 139 -58 203 -79 177 -59 321 -92 522 -118 102 -14 220
-17 655 -17 440 0 552 3 660 17 228 29 440 80 590 142 17 6 46 18 65 25 134
50 386 186 528 285 226 158 479 411 638 638 98 141 234 393 284 527 7 19 19
49 25 65 62 150 113 362 142 590 15 114 17 250 18 1125 0 1035 0 1033 -42
1170 -25 79 -93 208 -146 277 -55 72 -145 156 -219 205 -58 39 -155 86 -228
111 -76 26 -203 47 -284 47 -82 0 -226 -23 -288 -46 -21 -7 -44 -11 -51 -8 -8
3 -31 30 -52 60 -41 59 -140 156 -207 202 -57 39 -142 84 -198 104 -131 48
-161 52 -345 53 -180 1 -180 1 -186 916 -5 777 -8 925 -21 984 -19 84 -31 120
-70 205 -61 131 -159 252 -277 342 -61 46 -186 112 -261 138 -73 25 -179 42
-290 46 -63 2 -122 0 -130 -5z m210 -745 c26 -13 58 -42 75 -67 30 -44 30 -44
35 -1709 5 -1665 5 -1665 29 -1725 33 -82 115 -164 196 -195 33 -13 88 -25
122 -28 46 -3 77 1 125 17 118 40 198 120 239 238 17 51 19 86 19 384 0 184 4
339 10 353 5 14 25 43 46 65 25 28 52 46 89 57 46 15 58 15 100 3 64 -19 118
-73 140 -140 16 -46 17 -77 11 -258 -8 -259 4 -453 32 -507 66 -128 197 -214
327 -214 105 0 222 56 285 135 61 76 71 109 80 260 15 227 18 243 57 285 47
53 94 73 158 68 67 -6 129 -47 162 -108 24 -45 24 -45 20 -1030 -3 -744 -7
-997 -16 -1035 -7 -27 -21 -90 -32 -140 -43 -194 -134 -407 -253 -595 -130
-203 -353 -426 -556 -556 -75 -48 -121 -73 -225 -123 -156 -76 -318 -126 -525
-163 -107 -19 -1113 -19 -1220 0 -228 41 -391 94 -575 187 -161 81 -304 179
-424 291 -174 162 -291 317 -473 624 -149 251 -244 414 -251 430 -4 8 -11 22
-17 30 -17 25 -100 170 -100 174 0 2 -27 50 -60 105 -33 56 -60 104 -60 106 0
3 -10 22 -23 43 -13 20 -40 66 -59 102 -20 36 -77 136 -127 224 -50 87 -91
160 -91 162 0 1 -20 37 -45 78 -25 42 -45 78 -45 80 0 2 -27 50 -60 105 -33
56 -60 104 -60 106 0 3 -10 22 -23 43 -21 33 -78 134 -114 202 -18 34 -16 115
3 156 37 78 145 134 255 134 61 0 122 -19 177 -54 20 -13 175 -162 343 -332
211 -213 320 -316 350 -330 62 -30 150 -48 201 -40 93 13 115 20 163 51 84 54
110 86 159 198 15 34 16 179 16 1692 0 1027 4 1663 10 1679 17 45 79 104 127
120 26 9 55 16 65 16 11 0 44 -12 74 -26 70 -33 99 -77 109 -164 5 -36 11
-711 14 -1500 6 -1435 6 -1435 33 -1485 50 -92 124 -155 222 -188 63 -21 132
-22 204 -1 72 21 116 49 170 108 45 49 75 107 85 166 3 19 7 769 9 1665 2
1502 3 1633 19 1670 18 44 58 85 104 109 44 23 113 20 165 -8z" fill="#000000" stroke="none"/>
</g>
</svg>
