<?xml version="1.0" standalone="no"?>
<svg version="1.0" xmlns="http://www.w3.org/2000/svg"
 width="874.000000pt" height="874.000000pt"
 viewBox="0 0 874.000000 874.000000"
 preserveAspectRatio="xMidYMid meet">
<g transform="translate(0.000000,874.000000) scale(0.100000,-0.100000)">
<path d="M1106 7912 c-3 -5 -20 -12 -38 -16 -49 -10 -133 -70 -173 -124 -19
-26 -40 -65 -47 -87 -6 -22 -15 -44 -20 -49 -11 -13 -10 -142 1 -164 5 -9 17
-39 27 -66 19 -54 79 -126 134 -161 52 -32 132 -55 194 -55 70 0 167 -33 228
-77 59 -43 114 -117 139 -188 18 -53 19 -100 19 -1798 0 -1574 2 -1749 16
-1798 23 -77 47 -120 91 -163 55 -54 114 -85 191 -102 59 -12 75 -12 142 2
130 27 225 110 271 236 18 51 19 101 19 1799 0 1575 2 1751 16 1800 9 30 27
73 40 95 35 59 109 125 179 159 53 26 70 29 155 29 83 0 102 -3 152 -27 79
-39 148 -104 189 -179 34 -63 34 -63 39 -1838 5 -1470 8 -1783 19 -1820 16
-52 67 -135 102 -166 48 -43 106 -72 177 -88 67 -15 77 -15 144 0 76 17 153
60 200 110 15 16 39 54 55 84 28 55 28 55 33 1835 5 1780 5 1780 29 1838 27
69 90 150 146 189 22 15 71 37 108 49 52 16 85 20 136 17 133 -10 267 -105
328 -235 28 -58 28 -58 30 -2013 1 -1990 3 -2086 39 -2250 20 -92 56 -213 84
-285 32 -81 139 -287 192 -366 82 -123 137 -190 260 -318 93 -96 99 -105 82
-118 -10 -7 -27 -13 -37 -13 -11 0 -54 -6 -96 -14 -139 -26 -253 -37 -425 -42
-150 -5 -179 -9 -239 -31 -50 -19 -82 -39 -121 -77 -29 -29 -64 -77 -80 -110
-23 -49 -27 -73 -28 -142 0 -55 5 -97 17 -130 41 -109 130 -193 246 -228 45
-14 82 -17 205 -13 317 9 696 66 949 141 28 8 68 20 90 26 82 24 182 60 304
109 54 22 54 22 105 0 119 -52 213 -83 426 -144 173 -49 378 -86 615 -111 193
-21 461 -29 489 -16 12 6 37 16 56 22 83 26 190 139 206 218 4 18 11 35 15 38
12 7 12 139 0 162 -5 9 -17 39 -27 66 -19 54 -79 126 -134 161 -64 40 -135 54
-314 59 -167 5 -248 13 -421 42 -129 21 -135 23 -135 37 0 7 23 35 51 62 78
77 229 260 297 362 70 104 168 295 202 393 12 36 26 74 30 85 24 60 58 225 71
350 6 61 9 300 6 620 -3 485 -5 526 -25 610 -28 119 -40 164 -58 202 -8 17
-14 36 -14 42 0 17 -69 154 -115 231 -120 200 -305 386 -500 502 -163 97 -307
151 -515 193 -61 12 -134 17 -260 17 -136 0 -197 -5 -275 -20 -125 -26 -257
-69 -369 -122 -48 -22 -93 -40 -101 -40 -12 0 -14 136 -18 933 -4 898 -5 935
-25 1012 -39 154 -75 240 -149 355 -111 174 -255 305 -436 398 -156 80 -310
115 -502 116 -155 0 -277 -20 -400 -68 -81 -31 -208 -101 -274 -150 -41 -31
-78 -56 -83 -56 -4 0 -40 25 -79 55 -63 49 -191 119 -274 151 -123 48 -245 68
-400 68 -196 -1 -331 -32 -500 -116 -62 -31 -159 -94 -208 -135 -16 -12 -34
-23 -41 -23 -7 0 -30 15 -52 33 -49 42 -153 106 -224 139 -84 40 -177 70 -265
86 -98 18 -281 27 -289 14z m5159 -3380 c142 -37 294 -134 391 -251 48 -57
100 -150 143 -256 7 -16 19 -81 27 -144 19 -157 19 -758 0 -931 -24 -210 -98
-392 -232 -570 -73 -97 -204 -230 -304 -309 -91 -72 -198 -141 -218 -141 -42
0 -285 184 -397 302 -114 118 -209 252 -264 373 -13 28 -27 57 -31 65 -12 26
-47 153 -59 216 -7 39 -11 215 -11 500 1 533 6 588 77 744 26 58 91 148 147
204 116 116 286 200 436 215 96 10 219 3 295 -17z" fill="#000000" stroke="none"/>
</g>
</svg>
