<?xml version="1.0" standalone="no"?>
<svg version="1.0" xmlns="http://www.w3.org/2000/svg"
 width="910.000000pt" height="910.000000pt"
 viewBox="0 0 910.000000 910.000000"
 preserveAspectRatio="xMidYMid meet">
<g transform="translate(0.000000,910.000000) scale(0.100000,-0.100000)">
<path d="M4310 8271 c-14 -4 -75 -11 -135 -15 -92 -6 -271 -31 -358 -51 -89
-19 -209 -49 -247 -60 -25 -7 -72 -21 -105 -30 -33 -9 -74 -23 -92 -31 -17 -8
-38 -14 -47 -14 -8 0 -32 -7 -53 -16 -21 -9 -47 -20 -58 -25 -198 -80 -394
-172 -485 -227 -19 -12 -55 -33 -80 -47 -54 -30 -159 -99 -267 -175 -146 -102
-338 -267 -489 -421 -153 -157 -260 -283 -375 -444 -70 -98 -189 -280 -189
-289 0 -4 -12 -25 -27 -49 -39 -63 -135 -258 -183 -372 -55 -135 -56 -136 -69
-168 -14 -35 -45 -127 -61 -182 -6 -22 -18 -62 -26 -90 -30 -97 -64 -248 -90
-395 -64 -363 -64 -883 0 -1260 9 -47 17 -94 20 -105 3 -11 14 -65 26 -120 12
-55 25 -111 30 -125 5 -14 18 -59 30 -100 26 -90 48 -154 66 -197 8 -17 14
-36 14 -42 0 -6 4 -19 10 -29 5 -9 28 -62 51 -117 37 -91 151 -326 169 -350 4
-5 20 -32 35 -60 78 -143 223 -349 368 -524 125 -150 362 -385 502 -497 183
-147 333 -249 525 -357 172 -97 260 -140 413 -202 34 -14 69 -29 77 -34 9 -5
30 -12 48 -15 17 -4 34 -12 37 -17 4 -5 15 -9 27 -9 11 0 34 -6 51 -14 32 -15
64 -25 162 -51 405 -107 638 -139 1025 -139 238 0 397 11 570 39 138 23 323
61 405 85 166 46 249 73 302 96 17 8 35 14 41 14 9 0 93 35 212 88 87 38 202
95 240 118 19 11 67 38 105 59 39 20 77 44 86 51 8 8 18 14 22 14 9 0 162 106
271 189 148 111 286 233 422 372 141 145 228 248 350 416 99 135 166 238 214
328 18 33 36 65 40 70 18 24 122 238 159 330 23 55 45 107 50 115 5 9 12 30
15 48 4 17 12 34 17 37 5 4 9 15 9 27 0 11 6 34 14 51 8 18 22 59 31 92 10 33
23 80 30 105 50 177 95 419 117 635 15 153 15 554 0 710 -20 204 -71 483 -117
635 -7 25 -21 72 -30 105 -21 75 -43 140 -61 182 -8 17 -14 36 -14 42 0 6 -4
19 -10 29 -5 9 -28 62 -51 117 -37 91 -141 306 -159 330 -4 6 -24 42 -45 80
-20 39 -44 77 -51 86 -8 8 -14 18 -14 22 0 16 -162 242 -274 382 -104 130
-403 430 -531 532 -322 257 -566 401 -964 571 -40 18 -78 32 -83 32 -6 0 -24
6 -41 14 -43 18 -107 40 -197 66 -41 12 -86 25 -100 30 -23 7 -53 15 -215 51
-90 20 -227 40 -375 56 -158 17 -600 27 -640 14z m-128 -768 c37 -44 177 -303
219 -408 4 -11 15 -38 24 -60 17 -42 71 -202 98 -293 9 -29 14 -58 11 -66 -3
-9 -33 -15 -92 -20 -326 -26 -593 -54 -657 -70 -11 -3 -69 -14 -130 -26 -142
-27 -359 -82 -475 -119 -36 -12 -87 -29 -115 -37 -52 -16 -107 -37 -162 -60
-17 -8 -38 -14 -46 -14 -9 0 -18 -4 -22 -9 -3 -5 -19 -12 -35 -16 -16 -4 -57
-20 -90 -36 -33 -16 -63 -29 -65 -29 -12 0 -168 -75 -320 -155 -107 -56 -345
-197 -395 -234 -46 -35 -88 -56 -96 -48 -8 8 74 167 158 306 323 529 807 948
1383 1198 96 42 131 55 230 88 146 48 231 70 410 105 33 7 65 14 70 15 6 2 26
4 46 4 23 1 41 -5 51 -16z m930 -2 c223 -49 248 -55 403 -106 93 -31 151 -53
200 -75 11 -5 43 -19 70 -30 64 -28 197 -95 254 -128 31 -18 48 -37 62 -70 11
-25 24 -61 29 -81 5 -20 18 -72 30 -116 32 -122 61 -263 81 -400 5 -38 14 -95
19 -125 6 -31 15 -148 21 -262 24 -428 -23 -905 -126 -1283 -9 -33 -20 -78
-26 -100 -11 -44 -64 -208 -78 -240 -4 -11 -23 -58 -41 -105 -58 -151 -65
-167 -153 -345 -108 -219 -106 -214 -134 -215 -24 0 -251 180 -371 295 -120
115 -252 267 -326 374 -40 60 -41 70 -6 147 47 101 100 228 100 237 0 5 6 23
14 40 18 41 40 107 61 182 10 33 23 80 31 105 52 173 88 410 105 682 25 418
-33 856 -166 1253 -37 111 -95 258 -121 307 -8 14 -14 36 -14 47 0 24 16 26
82 12z m2000 -1366 c55 -89 188 -344 229 -440 22 -51 77 -206 93 -260 10 -33
22 -71 27 -85 20 -56 62 -271 91 -465 17 -121 17 -569 0 -690 -23 -156 -38
-238 -71 -387 -17 -77 -88 -295 -122 -375 -16 -38 -21 -42 -65 -49 -55 -8
-360 3 -454 17 -36 5 -101 16 -145 25 -44 8 -100 19 -125 24 -57 10 -149 40
-155 50 -3 4 30 77 73 162 81 161 106 216 166 363 21 50 41 99 46 110 5 11 18
49 30 85 11 36 32 94 44 130 23 64 64 201 92 310 13 51 21 87 60 275 66 312
98 713 87 1099 -6 208 -5 218 12 215 11 -3 47 -50 87 -114z m-2523 -214 c11
-7 13 -29 8 -113 -4 -58 -12 -129 -18 -159 -6 -30 -18 -88 -26 -129 -33 -163
-100 -369 -169 -518 -13 -29 -24 -56 -24 -61 0 -4 -9 -16 -20 -26 -14 -13 -45
-20 -107 -26 -97 -9 -258 -32 -373 -53 -94 -18 -280 -64 -300 -75 -9 -5 -31
-12 -50 -16 -19 -4 -39 -11 -45 -14 -5 -4 -41 -18 -80 -30 -63 -20 -94 -32
-160 -61 -11 -5 -42 -19 -70 -30 -161 -69 -377 -193 -568 -325 -239 -167 -514
-428 -708 -676 -54 -69 -105 -131 -113 -138 -8 -7 -17 -8 -20 -3 -4 7 -45 130
-86 258 -16 50 -55 232 -70 334 -6 36 -15 94 -21 130 -6 36 -13 136 -16 223
-6 158 -6 158 148 310 176 175 236 227 398 351 218 166 394 277 631 398 185
94 256 126 410 183 161 61 279 98 435 140 33 8 74 20 90 25 17 5 57 14 90 19
33 5 110 19 170 30 232 44 628 74 664 52z m-234 -1763 c14 -6 25 -14 25 -18 0
-12 161 -223 245 -319 90 -104 281 -294 385 -382 206 -175 446 -329 710 -455
168 -80 176 -84 184 -84 4 0 22 -6 39 -14 49 -21 196 -72 262 -91 33 -9 74
-22 90 -27 17 -6 62 -17 100 -25 39 -8 99 -21 135 -29 36 -7 120 -20 186 -29
123 -15 174 -28 174 -43 0 -15 -90 -114 -233 -255 -148 -146 -355 -310 -522
-411 -98 -59 -98 -59 -174 -42 -77 19 -144 38 -216 62 -23 8 -49 14 -59 14
-10 0 -32 6 -49 14 -18 8 -66 26 -108 39 -80 27 -233 89 -339 139 -36 17 -90
42 -120 56 -70 33 -293 160 -388 220 -104 67 -300 211 -418 308 -123 101 -363
336 -473 462 -142 164 -341 440 -426 588 -30 53 -24 58 149 134 88 38 225 85
346 116 30 8 69 19 85 24 17 5 50 12 75 15 25 3 63 11 85 16 22 5 81 13 130
18 50 5 91 9 92 10 1 0 14 -4 28 -11z m-1564 -780 c53 -90 95 -150 233 -336
124 -167 241 -307 365 -436 120 -124 339 -327 451 -418 125 -101 354 -267 459
-331 46 -29 95 -60 110 -69 14 -10 40 -24 56 -32 17 -8 55 -29 85 -47 30 -17
102 -56 160 -86 58 -30 109 -58 114 -63 6 -6 -2 -14 -20 -21 -20 -8 -105 -9
-284 -6 -140 3 -282 10 -315 16 -33 6 -89 15 -125 21 -107 16 -293 56 -330 69
-14 5 -59 20 -100 32 -41 12 -82 26 -90 30 -8 4 -37 15 -65 24 -65 23 -94 36
-245 107 -275 132 -544 319 -778 542 -118 113 -292 314 -292 338 0 43 167 310
296 475 86 108 236 263 255 263 10 0 34 -30 60 -72z" fill="#000000" stroke="none"/>
</g>
</svg>
